<?xml version="1.0" encoding="UTF-8" standalone="no"?>
<svg
   xmlns:dc="http://purl.org/dc/elements/1.1/"
   xmlns:cc="http://creativecommons.org/ns#"
   xmlns:rdf="http://www.w3.org/1999/02/22-rdf-syntax-ns#"
   xmlns:svg="http://www.w3.org/2000/svg"
   xmlns="http://www.w3.org/2000/svg"
   xmlns:sodipodi="http://sodipodi.sourceforge.net/DTD/sodipodi-0.dtd"
   xmlns:inkscape="http://www.inkscape.org/namespaces/inkscape"
   inkscape:version="1.0 (4035a4f, 2020-05-01)"
   sodipodi:docname="poc-tidytree--radial_01.svg"
   xml:space="preserve"
   style="enable-background:new 0 0 595.3 841.9;"
   viewBox="0 0 595.3 841.9"
   y="0px"
   x="0px"
   id="Layer_1"
   version="1.1"><metadata
   id="metadata15225"><rdf:RDF><cc:Work
       rdf:about=""><dc:format>image/svg+xml</dc:format><dc:type
         rdf:resource="http://purl.org/dc/dcmitype/StillImage" /></cc:Work></rdf:RDF></metadata><defs
   id="defs15223" /><sodipodi:namedview
   inkscape:current-layer="Layer_1"
   inkscape:window-maximized="0"
   inkscape:window-y="25"
   inkscape:window-x="0"
   inkscape:cy="182.7492"
   inkscape:cx="297.65"
   inkscape:zoom="1.0369403"
   showguides="true"
   inkscape:lockguides="false"
   showgrid="false"
   id="namedview15221"
   inkscape:window-height="1220"
   inkscape:window-width="2308"
   inkscape:pageshadow="2"
   inkscape:pageopacity="0"
   guidetolerance="10"
   gridtolerance="10"
   objecttolerance="10"
   borderopacity="1"
   bordercolor="#666666"
   pagecolor="#ffffff" />
<style
   type="text/css"
   id="style833">
	.st0{fill:none;stroke:#565656;stroke-width:1.5;stroke-opacity:0.4;}
	.st1{fill:none;stroke:#565656;stroke-width:1.5;}
</style>
<g
   transform="matrix(1.329883,0,0,1.329883,0.24741223,0.24741223)"
   id="g1847">
	
	<rect
   class="st1"
   width="566.90002"
   height="566.90002"
   id="rect1845"
   x="0"
   y="0" />
</g>
<g
   id="g2376"
   stroke-width="1.5"
   stroke-opacity="0.4"
   stroke="#555555"
   fill="none"
   transform="matrix(0.60939125,0,0,0.60939125,406.64111,413.49497)"><path
     id="path1874"
     d="M 0,0 C 27.095842,53.112673 11.497718,-58.505924 22.995437,-117.01185" /><path
     id="path1876"
     d="M 0,0 C 27.095842,53.112673 34.755564,-48.447821 69.511128,-96.895643" /><path
     id="path1878"
     d="M 0,0 C 27.095842,53.112673 51.536733,-29.985093 103.07347,-59.970186" /><path
     id="path1880"
     d="M 0,0 C 27.095842,53.112673 57.528285,-15.672811 115.05657,-31.345622" /><path
     id="path1882"
     d="M 0,0 C 27.095842,53.112673 59.156338,-7.4611191 118.31268,-14.922238" /><path
     id="path1884"
     d="M 0,0 C 27.095842,53.112673 59.354151,5.676743 118.7083,11.353486" /><path
     id="path1886"
     d="M 0,0 C 27.095842,53.112673 38.070925,45.888401 76.141849,91.776801" /><path
     id="path1888"
     d="M 0,0 C 27.095842,53.112673 -7.7579011,59.118149 -15.515802,118.2363" /><path
     id="path1890"
     d="M 0,0 C 27.095842,53.112673 -43.582014,40.690892 -87.164028,81.381784" /><path
     id="path1892"
     d="M 0,0 C 27.095842,53.112673 -54.115628,-25.032766 -108.23126,-50.065532" /><path
     id="path1894"
     d="m 22.995437,-117.01185 c 11.497718,-58.50592 -11.0352,-61.46285 -7.048454,-120.95442" /><path
     id="path1896"
     d="m 22.995437,-117.01185 c 11.497718,-58.50592 15.013889,-57.77819 27.683664,-116.04153" /><path
     id="path1898"
     d="m 22.995437,-117.01185 c 11.497718,-58.50592 33.473856,-52.71583 52.296954,-109.29172" /><path
     id="path1900"
     d="M 69.511128,-96.895643 C 104.26669,-145.34346 69.901212,-164.65141 93.201616,-219.53521" /><path
     id="path1902"
     d="M 69.511128,-96.895643 C 104.26669,-145.34346 76.453557,-161.71308 101.93808,-215.61744" /><path
     id="path1904"
     d="M 69.511128,-96.895643 C 104.26669,-145.34346 82.882685,-158.51412 110.51025,-211.35216" /><path
     id="path1906"
     d="M 69.511128,-96.895643 C 104.26669,-145.34346 89.178235,-155.05969 118.90431,-206.74626" /><path
     id="path1908"
     d="M 69.511128,-96.895643 C 104.26669,-145.34346 95.33006,-151.35536 127.10675,-201.80715" /><path
     id="path1910"
     d="M 69.511128,-96.895643 C 104.26669,-145.34346 101.32825,-147.4071 135.10433,-196.5428" /><path
     id="path1912"
     d="M 69.511128,-96.895643 C 104.26669,-145.34346 107.16312,-143.22126 142.88417,-190.96168" /><path
     id="path1914"
     d="M 69.511128,-96.895643 C 104.26669,-145.34346 112.82529,-138.80461 150.43372,-185.07281" /><path
     id="path1916"
     d="M 69.511128,-96.895643 C 104.26669,-145.34346 118.30563,-134.16424 157.74084,-178.88566" /><path
     id="path1918"
     d="M 69.511128,-96.895643 C 104.26669,-145.34346 123.59529,-129.30765 164.79372,-172.41021" /><path
     id="path1920"
     d="M 69.511128,-96.895643 C 104.26669,-145.34346 128.68576,-124.24267 171.58102,-165.65689" /><path
     id="path1922"
     d="M 69.511128,-96.895643 C 104.26669,-145.34346 133.56884,-118.97744 178.09178,-158.63659" /><path
     id="path1924"
     d="m 103.07347,-59.970186 c 51.53673,-29.985093 39.60819,-47.910344 87.16875,-83.870524" /><path
     id="path1926"
     d="m 103.07347,-59.970186 c 51.53673,-29.985093 43.82326,-42.096544 92.78883,-76.118794" /><path
     id="path1928"
     d="m 103.07347,-59.970186 c 51.53673,-29.985093 47.80157,-36.11825 98.09325,-68.147724" /><path
     id="path1930"
     d="M 103.07347,-59.970186 C 154.6102,-89.955279 154.6102,-89.955279 206.14693,-119.94037" /><path
     id="path1932"
     d="M 103.07347,-59.970186 C 154.6102,-89.955279 158.09618,-83.677144 210.7949,-111.56953" /><path
     id="path1934"
     d="m 103.07347,-59.970186 c 51.53673,-29.985093 58.25389,-17.293965 112.02967,-43.048684" /><path
     id="path1936"
     d="m 103.07347,-59.970186 c 51.53673,-29.985093 61.22507,-10.756448 115.99124,-34.331993" /><path
     id="path1938"
     d="m 115.05657,-31.345622 c 57.52829,-15.672811 54.38558,-25.974738 110.8663,-45.081524" /><path
     id="path1940"
     d="m 115.05657,-31.345622 c 57.52829,-15.672811 56.54973,-19.127586 113.75182,-35.951989" /><path
     id="path1942"
     d="m 115.05657,-31.345622 c 57.52829,-15.672811 58.4373,-12.199089 116.26859,-26.713993" /><path
     id="path1944"
     d="m 115.05657,-31.345622 c 57.52829,-15.672811 60.04527,-5.200413 118.41254,-17.382424" /><path
     id="path1946"
     d="m 118.31268,-14.922238 c 59.15633,-7.461119 59.15633,-7.461119 118.31267,-14.922238" /><path
     id="path1948"
     d="m 118.7083,11.353486 c 59.35415,5.676743 59.98428,-19.429927 119.54847,-22.122074" /><path
     id="path1950"
     d="M 118.7083,11.353486 C 178.06245,17.030229 178.87275,-0.89768375 238.497,-1.1969117" /><path
     id="path1952"
     d="m 118.7083,11.353486 c 59.35415,5.676743 60.05634,-5.0709658 119.64455,-2.9767924" /><path
     id="path1954"
     d="m 118.7083,11.353486 c 59.35415,5.676743 59.66012,2.099113 119.11626,6.583313" /><path
     id="path1956"
     d="m 118.7083,11.353486 c 59.35415,5.676743 58.97643,9.247511 118.20468,16.11451" /><path
     id="path1958"
     d="m 118.7083,11.353486 c 59.35415,5.676743 58.00638,16.362707 116.91127,25.601438" /><path
     id="path1960"
     d="m 118.7083,11.353486 c 59.35415,5.676743 56.75152,23.433234 115.23813,35.028807" /><path
     id="path1962"
     d="m 118.7083,11.353486 c 59.35415,5.676743 55.21389,30.447696 113.18795,44.381424" /><path
     id="path1964"
     d="M 76.141849,91.776801 C 114.21277,137.6652 170.00893,55.616804 226.67858,74.155739" /><path
     id="path1966"
     d="M 76.141849,91.776801 C 114.21277,137.6652 167.63962,62.395697 223.5195,83.194262" /><path
     id="path1968"
     d="M 76.141849,91.776801 C 114.21277,137.6652 165.00013,69.074029 220.00018,92.098705" /><path
     id="path1970"
     d="M 76.141849,91.776801 C 114.21277,137.6652 162.09472,75.641038 216.1263,100.85472" /><path
     id="path1972"
     d="M 76.141849,91.776801 C 114.21277,137.6652 158.92807,82.086139 211.90409,109.44819" /><path
     id="path1974"
     d="M 76.141849,91.776801 C 114.21277,137.6652 155.50528,88.398945 207.34037,117.86526" /><path
     id="path1976"
     d="M 76.141849,91.776801 C 114.21277,137.6652 151.83187,94.569283 202.44249,126.09238" /><path
     id="path1978"
     d="M 76.141849,91.776801 C 114.21277,137.6652 147.91376,100.58721 197.21834,134.11628" /><path
     id="path1980"
     d="M 76.141849,91.776801 C 114.21277,137.6652 143.75726,106.44302 191.67634,141.92403" /><path
     id="path1982"
     d="M 76.141849,91.776801 C 114.21277,137.6652 139.36907,112.12728 185.82543,149.50304" /><path
     id="path1984"
     d="M 76.141849,91.776801 C 114.21277,137.6652 134.75627,117.63083 179.67503,156.84111" /><path
     id="path1986"
     d="M 76.141849,91.776801 C 114.21277,137.6652 129.92629,122.94481 173.23505,163.92641" /><path
     id="path1988"
     d="M 76.141849,91.776801 C 114.21277,137.6652 124.88691,128.06063 166.51588,170.74751" /><path
     id="path1990"
     d="M 76.141849,91.776801 C 114.21277,137.6652 119.64626,132.97007 159.52834,177.29342" /><path
     id="path1992"
     d="M 76.141849,91.776801 C 114.21277,137.6652 114.21277,137.6652 152.2837,183.5536" /><path
     id="path1994"
     d="M 76.141849,91.776801 C 114.21277,137.6652 108.59522,142.13847 144.79363,189.51796" /><path
     id="path1996"
     d="M 76.141849,91.776801 C 114.21277,137.6652 102.80265,146.38265 137.0702,195.17687" /><path
     id="path1998"
     d="M 76.141849,91.776801 C 114.21277,137.6652 96.844392,150.39092 129.12586,200.52123" /><path
     id="path2000"
     d="M 76.141849,91.776801 C 114.21277,137.6652 90.730057,154.15681 120.97341,205.54241" /><path
     id="path2002"
     d="M 76.141849,91.776801 C 114.21277,137.6652 84.469496,157.67425 112.62599,210.23234" /><path
     id="path2004"
     d="M 76.141849,91.776801 C 114.21277,137.6652 78.072799,160.93758 104.09707,214.58344" /><path
     id="path2006"
     d="M 76.141849,91.776801 C 114.21277,137.6652 71.550275,163.94153 95.400367,218.5887" /><path
     id="path2008"
     d="M 76.141849,91.776801 C 114.21277,137.6652 64.912438,166.68126 86.549917,222.24167" /><path
     id="path2010"
     d="M 76.141849,91.776801 C 114.21277,137.6652 58.169983,169.15235 77.559977,225.53647" /><path
     id="path2012"
     d="M 76.141849,91.776801 C 114.21277,137.6652 51.333778,171.35084 68.445038,228.46778" /><path
     id="path2014"
     d="M 76.141849,91.776801 C 114.21277,137.6652 44.414841,173.27316 59.219788,231.03088" /><path
     id="path2016"
     d="M 76.141849,91.776801 C 114.21277,137.6652 37.424323,174.91622 49.899097,233.22163" /><path
     id="path2018"
     d="M 76.141849,91.776801 C 114.21277,137.6652 30.373489,176.27739 40.497985,235.03651" /><path
     id="path2020"
     d="M 76.141849,91.776801 C 114.21277,137.6652 23.273703,177.35445 31.031604,236.4726" /><path
     id="path2022"
     d="m -15.515802,118.2363 c -7.757901,59.11815 24.4889095,60.41349 27.479945,119.96343" /><path
     id="path2024"
     d="m -15.515802,118.2363 c -7.757901,59.11815 17.3111469,60.62969 17.9095952,120.25169" /><path
     id="path2026"
     d="m -15.515802,118.2363 c -7.757901,59.11815 10.1304908,60.55762 8.335387,120.15559" /><path
     id="path2028"
     d="m -15.515802,118.2363 c -7.757901,59.11815 2.958514,60.19739 -1.227249,119.67528" /><path
     id="path2030"
     d="m -15.515802,118.2363 c -7.757901,59.11815 -4.193225,59.54958 -10.7629,118.81154" /><path
     id="path2032"
     d="m -15.515802,118.2363 c -7.757901,59.11815 -11.313199,58.61525 -20.2562,117.56577" /><path
     id="path2034"
     d="m -15.515802,118.2363 c -7.757901,59.11815 -18.389935,57.39589 -29.691847,115.93996" /><path
     id="path2036"
     d="m -15.515802,118.2363 c -7.757901,59.11815 -25.412026,55.89347 -39.054635,113.93673" /><path
     id="path2038"
     d="m -15.515802,118.2363 c -7.757901,59.11815 -32.368155,54.11042 -48.329474,111.55933" /><path
     id="path2040"
     d="m -15.515802,118.2363 c -7.757901,59.11815 -39.247112,52.0496 -57.501417,108.81157" /><path
     id="path2042"
     d="M -87.164028,81.381784 C -130.74604,122.07268 -68.245106,165.3447 -90.993475,220.45961" /><path
     id="path2044"
     d="M -87.164028,81.381784 C -130.74604,122.07268 -74.826613,162.47229 -99.768817,216.62971" /><path
     id="path2046"
     d="m -87.164028,81.381784 c -43.582012,40.690896 5.876503,77.956236 -21.219342,131.068906" /><path
     id="path2048"
     d="M -87.164028,81.381784 C -130.74604,122.07268 -87.617429,155.94695 -116.82324,207.92927" /><path
     id="path2050"
     d="M -87.164028,81.381784 C -130.74604,122.07268 -93.806124,152.30455 -125.07483,203.07274" /><path
     id="path2052"
     d="M -87.164028,81.381784 C -130.74604,122.07268 -99.843636,148.41669 -133.12485,197.88892" /><path
     id="path2054"
     d="M -87.164028,81.381784 C -130.74604,122.07268 -105.72023,144.28963 -140.96031,192.38618" /><path
     id="path2056"
     d="M -87.164028,81.381784 C -130.74604,122.07268 -111.42645,139.93003 -148.5686,186.57337" /><path
     id="path2058"
     d="M -87.164028,81.381784 C -130.74604,122.07268 -116.95308,135.3449 -155.93744,180.45987" /><path
     id="path2060"
     d="M -87.164028,81.381784 C -130.74604,122.07268 -122.29122,130.54165 -163.05496,174.05553" /><path
     id="path2062"
     d="M -87.164028,81.381784 C -130.74604,122.07268 -127.43227,125.52801 -169.9097,167.37068" /><path
     id="path2064"
     d="M -87.164028,81.381784 C -130.74604,122.07268 -132.36795,120.31206 -176.4906,160.41608" /><path
     id="path2066"
     d="M -87.164028,81.381784 C -130.74604,122.07268 -137.09029,114.90221 -182.78706,153.20294" /><path
     id="path2068"
     d="M -87.164028,81.381784 C -130.74604,122.07268 -141.59169,109.30717 -188.78892,145.7429" /><path
     id="path2070"
     d="M -87.164028,81.381784 C -130.74604,122.07268 -145.8649,103.53597 -194.48653,138.04796" /><path
     id="path2072"
     d="M -87.164028,81.381784 C -130.74604,122.07268 -149.90301,97.597909 -199.87069,130.13055" /><path
     id="path2074"
     d="M -87.164028,81.381784 C -130.74604,122.07268 -153.69954,91.50255 -204.93272,122.0034" /><path
     id="path2076"
     d="M -87.164028,81.381784 C -130.74604,122.07268 -161.58496,76.72397 -215.44661,102.29863" /><path
     id="path2078"
     d="M -87.164028,81.381784 C -130.74604,122.07268 -169.63298,56.753141 -226.1773,75.670855" /><path
     id="path2080"
     d="m -108.23126,-50.065532 c -54.11563,-25.032766 -66.49495,88.3672 -124.73702,101.134423" /><path
     id="path2082"
     d="m -108.23126,-50.065532 c -54.11563,-25.032766 -67.89148,81.323286 -126.59906,91.742537" /><path
     id="path2084"
     d="m -108.23126,-50.065532 c -54.11563,-25.032766 -70.2632,38.403871 -129.76135,34.516651" /><path
     id="path2086"
     d="M -108.23126,-50.065532 C -162.34689,-75.098298 -167.42993,-62.956215 -223.2399,-83.94162" /><path
     id="path2088"
     d="m -108.23126,-50.065532 c -54.11563,-25.032766 -43.28336,-45.011201 -93.78823,-76.703448" /><path
     id="path2090"
     d="m -108.23126,-50.065532 c -54.11563,-25.032766 -30.76189,-62.527408 -77.09294,-100.058388" /><path
     id="path2092"
     d="M -108.23126,-50.065532 C -162.34689,-75.098298 -83.941497,-157.95598 -111.922,-210.60797" /><path
     id="path2094"
     d="m 15.946983,-237.96627 c 3.986745,-59.49156 -7.9684911,-60.05195 -6.3727927,-119.65559" /><path
     id="path2096"
     d="m 15.946983,-237.96627 c 3.986745,-59.49156 0.0043,-59.73169 3.194539,-119.27128" /><path
     id="path2098"
     d="m 15.946983,-237.96627 c 3.986745,-59.49156 7.965635,-59.19817 12.748159,-118.63105" /><path
     id="path2100"
     d="m 15.946983,-237.96627 c 3.986745,-59.49156 15.909856,-58.45178 22.281223,-117.73538" /><path
     id="path2102"
     d="m 50.679101,-233.05338 c 12.669775,-58.26335 -3.007958,-61.23556 6.526271,-120.09334" /><path
     id="path2104"
     d="m 50.679101,-233.05338 c 12.669775,-58.26335 4.850798,-59.85436 15.956778,-118.43591" /><path
     id="path2106"
     d="m 50.679101,-233.05338 c 12.669775,-58.26335 12.669775,-58.26335 25.33955,-116.52669" /><path
     id="path2108"
     d="m 50.679101,-233.05338 c 12.669775,-58.26335 20.443372,-56.46365 34.667867,-114.36705" /><path
     id="path2110"
     d="m 50.679101,-233.05338 c 12.669775,-58.26335 28.166022,-54.45655 43.935046,-111.95854" /><path
     id="path2112"
     d="m 75.292391,-226.30357 c 18.823097,-56.57589 18.823097,-56.57589 37.646199,-113.15179" /><path
     id="path2114"
     d="m 178.09178,-158.63659 c 44.52295,-39.65914 22.05899,-62.31179 62.08914,-106.50146" /><path
     id="path2116"
     d="m 178.09178,-158.63659 c 44.52295,-39.65914 27.90037,-56.87617 69.0988,-99.97872" /><path
     id="path2118"
     d="m 178.09178,-158.63659 c 44.52295,-39.65914 33.5942,-51.28617 75.93139,-93.27072" /><path
     id="path2120"
     d="m 178.09178,-158.63659 c 44.52295,-39.65914 39.13638,-45.54579 82.58201,-86.38226" /><path
     id="path2122"
     d="m 178.09178,-158.63659 c 44.52295,-39.65914 44.52295,-39.65914 89.0459,-79.31829" /><path
     id="path2124"
     d="m 178.09178,-158.63659 c 44.52295,-39.65914 49.75005,-33.63045 95.31842,-72.08386" /><path
     id="path2126"
     d="m 178.09178,-158.63659 c 44.52295,-39.65914 54.81394,-27.46403 101.39509,-64.68415" /><path
     id="path2128"
     d="m 178.09178,-158.63659 c 44.52295,-39.65914 59.71099,-21.16429 107.27154,-57.12447" /><path
     id="path2130"
     d="m 178.09178,-158.63659 c 44.52295,-39.65914 64.43769,-14.73576 112.94358,-49.41023" /><path
     id="path2132"
     d="m 219.06471,-94.302179 c 54.76618,-23.575541 48.06685,-38.058101 101.49317,-64.530151" /><path
     id="path2134"
     d="m 219.06471,-94.302179 c 54.76618,-23.575541 51.51343,-30.861651 105.62906,-55.894421" /><path
     id="path2136"
     d="m 219.06471,-94.302179 c 54.76618,-23.575541 54.76618,-23.575541 109.53236,-47.151091" /><path
     id="path2138"
     d="m 219.06471,-94.302179 c 54.76618,-23.575541 57.82278,-16.205001 113.20027,-38.306431" /><path
     id="path2140"
     d="m 219.06471,-94.302179 c 54.76618,-23.575541 60.68102,-8.755291 116.63017,-29.366781" /><path
     id="path2142"
     d="m 31.031604,236.4726 c 7.757901,59.11815 123.609906,18.40878 154.538206,69.38506" /><path
     id="path2144"
     d="m 31.031604,236.4726 c 7.757901,59.11815 116.733326,22.45604 146.286306,74.24177" /><path
     id="path2146"
     d="m 31.031604,236.4726 c 7.757901,59.11815 109.750886,26.31782 137.907386,78.87591" /><path
     id="path2148"
     d="m 31.031604,236.4726 c 7.757901,59.11815 102.667606,29.99135 129.407446,83.28414" /><path
     id="path2150"
     d="m 31.031604,236.4726 c 7.757901,59.11815 95.488546,33.474 120.792576,87.46332" /><path
     id="path2152"
     d="m 31.031604,236.4726 c 7.757901,59.11815 88.218856,36.76328 112.068946,91.41045" /><path
     id="path2154"
     d="m 31.031604,236.4726 c 7.757901,59.11815 80.863736,39.85682 103.242806,95.1227" /><path
     id="path2156"
     d="m 31.031604,236.4726 c 7.757901,59.11815 73.428466,42.75241 94.320486,98.59742" /><path
     id="path2158"
     d="m 31.031604,236.4726 c 7.757901,59.11815 65.918368,45.44799 85.308366,101.83211" /><path
     id="path2160"
     d="m 31.031604,236.4726 c 7.757901,59.11815 58.338817,47.94161 76.212906,104.82445" /><path
     id="path2162"
     d="m 31.031604,236.4726 c 7.757901,59.11815 50.695247,50.23149 67.040617,107.57231" /><path
     id="path2164"
     d="m 31.031604,236.4726 c 7.757901,59.11815 42.993131,52.316 57.798078,110.07372" /><path
     id="path2166"
     d="m 31.031604,236.4726 c 7.757901,59.11815 35.237989,54.19363 48.491907,112.32687" /><path
     id="path2168"
     d="m 31.031604,236.4726 c 7.757901,59.11815 27.435374,55.86304 39.12877,114.33017" /><path
     id="path2170"
     d="m 31.031604,236.4726 c 7.757901,59.11815 19.590877,57.32304 29.715374,116.08217" /><path
     id="path2172"
     d="m 31.031604,236.4726 c 7.757901,59.11815 11.710117,58.57258 20.258461,117.58162" /><path
     id="path2174"
     d="m 31.031604,236.4726 c 7.757901,59.11815 3.798739,59.61077 10.764808,118.82745" /><path
     id="path2176"
     d="m 31.031604,236.4726 c 7.757901,59.11815 -4.13759,60.43686 1.241213,119.81875" /><path
     id="path2178"
     d="m 31.031604,236.4726 c 7.757901,59.11815 -12.093184,61.05026 -8.3055,120.55483" /><path
     id="path2180"
     d="M 31.031604,236.4726 C 38.789505,295.59075 10.96926,297.92313 13.163112,357.50776" /><path
     id="path2182"
     d="M 31.031604,236.4726 C 38.789505,295.59075 2.9922415,298.10998 3.5906898,357.73198" /><path
     id="path2184"
     d="m 31.031604,236.4726 c 7.757901,59.11815 -36.0185243,61.61069 -37.0159083,121.22734" /><path
     id="path2186"
     d="m 31.031604,236.4726 c 7.757901,59.11815 -43.994114,61.37046 -46.586616,120.93907" /><path
     id="path2188"
     d="m 31.031604,236.4726 c 7.757901,59.11815 -51.960417,60.91688 -56.14618,120.39477" /><path
     id="path2190"
     d="m 31.031604,236.4726 c 7.757901,59.11815 -59.911729,60.25026 -65.687754,119.59483" /><path
     id="path2192"
     d="m 31.031604,236.4726 c 7.757901,59.11815 -67.842352,59.37108 -75.204502,118.53982" /><path
     id="path2194"
     d="m 31.031604,236.4726 c 7.757901,59.11815 -75.746606,58.27998 -84.689607,117.2305" /><path
     id="path2196"
     d="m 31.031604,236.4726 c 7.757901,59.11815 -83.618829,56.97774 -94.136274,115.6678" /><path
     id="path2198"
     d="m 31.031604,236.4726 c 7.757901,59.11815 -91.453381,55.46528 -103.537737,113.85285" /><path
     id="path2200"
     d="m 31.031604,236.4726 c 7.757901,59.11815 -99.244651,53.74369 -112.88726,111.78695" /><path
     id="path2202"
     d="m 31.031604,236.4726 c 7.757901,59.11815 -106.987056,51.81421 -122.178146,109.47157" /><path
     id="path2204"
     d="m 31.031604,236.4726 c 7.757901,59.11815 -114.67505,49.67822 -131.403744,106.90838" /><path
     id="path2206"
     d="m -204.93272,122.0034 c -51.23318,30.50085 -49.16938,33.91529 -99.9898,65.09902" /><path
     id="path2208"
     d="m -204.93272,122.0034 c -51.23318,30.50085 -53.2511,27.0591 -104.88787,56.8716" /><path
     id="path2210"
     d="m -215.44661,102.29863 c -53.86165,25.57465 -50.34302,32.73614 -103.50094,59.7431" /><path
     id="path2212"
     d="m -215.44661,102.29863 c -53.86165,25.57465 -53.86165,25.57465 -107.7233,51.14931" /><path
     id="path2214"
     d="m -215.44661,102.29863 c -53.86165,25.57465 -57.18737,18.32156 -111.71416,42.4456" /><path
     id="path2216"
     d="m -226.1773,75.670855 c -56.54433,18.917713 -52.51997,30.189195 -108.25942,51.361205" /><path
     id="path2218"
     d="m -226.1773,75.670855 c -56.54433,18.917713 -55.2532,22.692714 -111.5393,42.365425" /><path
     id="path2220"
     d="m -226.1773,75.670855 c -56.54433,18.917713 -57.78482,15.125773 -114.57725,33.285095" /><path
     id="path2222"
     d="m -226.1773,75.670855 c -56.54433,18.917713 -60.11304,7.49379 -117.37111,24.126719" /><path
     id="path2224"
     d="m -234.83032,41.677005 c -58.70757,10.419251 -55.49967,26.050461 -113.56567,39.595954" /><path
     id="path2226"
     d="m -234.83032,41.677005 c -58.70757,10.419251 -57.20823,18.256323 -115.61593,30.242988" /><path
     id="path2228"
     d="m -234.83032,41.677005 c -58.70757,10.419251 -58.70757,10.419251 -117.41515,20.838503" /><path
     id="path2230"
     d="m -234.83032,41.677005 c -58.70757,10.419251 -59.99665,2.544861 -118.96204,11.389235" /><path
     id="path2232"
     d="m -234.83032,41.677005 c -58.70757,10.419251 -61.07453,-5.361207 -120.2555,1.901953" /><path
     id="path2234"
     d="m -237.99261,-15.548881 c -59.49815,-3.887221 -59.43146,35.980181 -118.91627,40.06644" /><path
     id="path2236"
     d="m -237.99261,-15.548881 c -59.49815,-3.887221 -59.87172,28.013129 -119.44458,30.505979" /><path
     id="path2238"
     d="m -237.99261,-15.548881 c -59.49815,-3.887221 -60.0986,20.037149 -119.71685,20.9348026" /><path
     id="path2240"
     d="m -237.99261,-15.548881 c -59.49815,-3.887221 -60.11195,12.0579538 -119.73286,11.3597683" /><path
     id="path2242"
     d="m -237.99261,-15.548881 c -59.49815,-3.887221 -59.91175,4.081259 -119.49263,1.787735" /><path
     id="path2244"
     d="m -237.99261,-15.548881 c -59.49815,-3.887221 -59.49815,-3.887221 -118.9963,-7.774441" /><path
     id="path2246"
     d="m -237.99261,-15.548881 c -59.49815,-3.887221 -58.87145,-11.841777 -118.24426,-17.319909" /><path
     id="path2248"
     d="m -237.99261,-15.548881 c -59.49815,-3.887221 -58.03208,-19.776713 -117.23702,-26.841832" /><path
     id="path2250"
     d="m -237.99261,-15.548881 c -59.49815,-3.887221 -56.98066,-27.686343 -115.97532,-36.333388" /><path
     id="path2252"
     d="m -237.99261,-15.548881 c -59.49815,-3.887221 -55.71794,-35.565002 -114.46005,-45.787779" /><path
     id="path2254"
     d="m -237.99261,-15.548881 c -59.49815,-3.887221 -54.24482,-43.407046 -112.6923,-55.198231" /><path
     id="path2256"
     d="m -223.2399,-83.94162 c -55.80998,-20.9854 -65.42446,9.433892 -123.15733,-5.467654" /><path
     id="path2258"
     d="m -223.2399,-83.94162 c -55.80998,-20.9854 -63.32708,1.735274 -120.64047,-14.705995" /><path
     id="path2260"
     d="m -223.2399,-83.94162 c -55.80998,-20.9854 -61.02441,-5.904455 -117.87727,-23.87367" /><path
     id="path2262"
     d="m -223.2399,-83.94162 c -55.80998,-20.9854 -58.51811,-13.479824 -114.86972,-32.96411" /><path
     id="path2264"
     d="m -223.2399,-83.94162 c -55.80998,-20.9854 -55.80998,-20.9854 -111.61996,-41.97081" /><path
     id="path2266"
     d="m -223.2399,-83.94162 c -55.80998,-20.9854 -52.90195,-28.41582 -108.13032,-50.88731" /><path
     id="path2268"
     d="m -223.2399,-83.94162 c -55.80998,-20.9854 -49.79611,-35.76575 -104.40331,-59.70723" /><path
     id="path2270"
     d="m -223.2399,-83.94162 c -55.80998,-20.9854 -46.49468,-43.02993 -100.44159,-68.42424" /><path
     id="path2272"
     d="m -223.2399,-83.94162 c -55.80998,-20.9854 -43.00002,-50.20315 -96.24801,-77.03211" /><path
     id="path2274"
     d="m -202.01949,-126.76898 c -50.50488,-31.69224 -56.6616,-21.42889 -108.39782,-51.06846" /><path
     id="path2276"
     d="m -202.01949,-126.76898 c -50.50488,-31.69224 -52.60284,-28.29869 -103.52731,-59.31223" /><path
     id="path2278"
     d="m -202.01949,-126.76898 c -50.50488,-31.69224 -48.36169,-35.05741 -98.43792,-67.42269" /><path
     id="path2280"
     d="m -202.01949,-126.76898 c -50.50488,-31.69224 -43.94117,-41.70021 -93.1333,-75.39405" /><path
     id="path2282"
     d="m -185.3242,-150.12392 c -46.33105,-37.53098 -51.27014,-31.26415 -98.58901,-67.54176" /><path
     id="path2284"
     d="m -185.3242,-150.12392 c -46.33105,-37.53098 -46.33105,-37.53098 -92.6621,-75.06196" /><path
     id="path2286"
     d="m -185.3242,-150.12392 c -46.33105,-37.53098 -41.22601,-43.66338 -86.53606,-82.42084" /><path
     id="path2288"
     d="m -111.922,-210.60797 c -27.98049,-52.65199 -103.93505,4.97662 -147.10646,-36.14965" /><path
     id="path2290"
     d="m -111.922,-210.60797 c -27.98049,-52.65199 -98.35458,-0.72654 -140.40989,-42.99344" /><path
     id="path2292"
     d="m -111.922,-210.60797 c -27.98049,-52.65199 -92.62348,-6.27832 -133.53257,-49.65558" /><path
     id="path2294"
     d="m -111.922,-210.60797 c -27.98049,-52.65199 -86.74585,-11.67473 -126.47942,-56.13127" /><path
     id="path2296"
     d="m -111.922,-210.60797 c -27.98049,-52.65199 -80.72591,-16.91191 -119.2555,-62.41589" /><path
     id="path2298"
     d="m -111.922,-210.60797 c -27.98049,-52.65199 -74.56797,-21.98611 -111.86597,-68.50493" /><path
     id="path2300"
     d="m -111.922,-210.60797 c -27.98049,-52.65199 -68.27644,-26.89369 -104.31613,-74.39402" /><path
     id="path2302"
     d="m -111.922,-210.60797 c -27.98049,-52.65199 -43.5714,-43.7546 -74.67008,-94.62712" /><path
     id="path2304"
     d="m -111.922,-210.60797 c -27.98049,-52.65199 -17.3012,-58.05517 -43.14583,-111.78779" /><path
     id="path2306"
     d="m -111.922,-210.60797 c -27.98049,-52.65199 4.66464,-67.55453 -16.78683,-123.18703" /><path
     id="path2308"
     d="m -111.922,-210.60797 c -27.98049,-52.65199 62.282746,-83.3554 52.354895,-142.14807" /><path
     id="path2310"
     d="m -319.48791,-160.97373 c -53.24798,-26.82895 -58.73311,-15.52202 -112.76468,-40.7357" /><path
     id="path2312"
     d="m -319.48791,-160.97373 c -53.24798,-26.82895 -55.11416,-23.07839 -108.62874,-49.37155" /><path
     id="path2314"
     d="m -319.48791,-160.97373 c -53.24798,-26.82895 -51.34425,-30.56059 -104.32028,-57.92264" /><path
     id="path2316"
     d="m -319.48791,-160.97373 c -53.24798,-26.82895 -47.42492,-37.96562 -99.84104,-66.38552" /><path
     id="path2318"
     d="m -216.23813,-285.00199 c -36.03968,-47.50033 -42.66308,-42.36944 -79.64897,-89.13679" /><path
     id="path2320"
     d="m -216.23813,-285.00199 c -36.03968,-47.50033 -36.03968,-47.50033 -72.07937,-95.00067" /><path
     id="path2322"
     d="m -216.23813,-285.00199 c -36.03968,-47.50033 -29.31463,-52.49725 -64.39359,-100.71142" /><path
     id="path2324"
     d="m -186.59208,-305.23509 c -31.09868,-50.87251 -45.21647,-41.84802 -78.33198,-91.43132" /><path
     id="path2326"
     d="m -186.59208,-305.23509 c -31.09868,-50.87251 -38.20287,-46.43112 -70.31643,-96.66915" /><path
     id="path2328"
     d="m -186.59208,-305.23509 c -31.09868,-50.87251 -31.09868,-50.87251 -62.19735,-101.74503" /><path
     id="path2330"
     d="m -186.59208,-305.23509 c -31.09868,-50.87251 -23.90676,-55.17041 -53.97803,-106.65691" /><path
     id="path2332"
     d="m -186.59208,-305.23509 c -31.09868,-50.87251 -16.63003,-59.32309 -45.66176,-111.40282" /><path
     id="path2334"
     d="m -155.06783,-322.39576 c -25.84464,-53.73263 -33.35812,-50.02544 -60.27611,-103.22847" /><path
     id="path2336"
     d="m -155.06783,-322.39576 c -25.84464,-53.73263 -25.84464,-53.73263 -51.68928,-107.46526" /><path
     id="path2338"
     d="m -155.06783,-322.39576 c -25.84464,-53.73263 -18.25827,-57.28826 -43.01914,-111.52883" /><path
     id="path2340"
     d="m -128.70883,-333.795 c -21.45147,-55.6325 -29.23809,-52.53991 -51.80193,-107.73061" /><path
     id="path2342"
     d="m -128.70883,-333.795 c -21.45147,-55.6325 -21.45147,-55.6325 -42.90294,-111.265" /><path
     id="path2344"
     d="m -128.70883,-333.795 c -21.45147,-55.6325 -13.60434,-58.56816 -33.9348,-114.62004" /><path
     id="path2346"
     d="m -59.567105,-352.75604 c -9.92785,-58.79267 -66.882965,-45.00302 -84.947255,-101.82574" /><path
     id="path2348"
     d="m -59.567105,-352.75604 c -9.92785,-58.79267 -58.873375,-47.46108 -75.793445,-104.63495" /><path
     id="path2350"
     d="m -59.567105,-352.75604 c -9.92785,-58.79267 -50.816065,-49.75787 -66.585095,-107.25985" /><path
     id="path2352"
     d="m -59.567105,-352.75604 c -9.92785,-58.79267 -42.714275,-51.89246 -57.325905,-109.69939" /><path
     id="path2354"
     d="m -59.567105,-352.75604 c -9.92785,-58.79267 -34.571269,-53.864 -48.019605,-111.95258" /><path
     id="path2356"
     d="m -59.567105,-352.75604 c -9.92785,-58.79267 -26.39033,-55.67169 -38.669963,-114.01851" /><path
     id="path2358"
     d="m -59.567105,-352.75604 c -9.92785,-58.79267 -18.174753,-57.3148 -29.280733,-115.89635" /><path
     id="path2360"
     d="m -59.567105,-352.75604 c -9.92785,-58.79267 -9.92785,-58.79267 -19.855701,-117.58534" /><path
     id="path2362"
     d="m -59.567105,-352.75604 c -9.92785,-58.79267 -1.652944,-60.10471 -10.398665,-119.08481" /><path
     id="path2364"
     d="m -59.567105,-352.75604 c -9.92785,-58.79267 6.646631,-61.25038 -0.913437,-120.39415" /><path
     id="path2366"
     d="m -59.567105,-352.75604 c -9.92785,-58.79267 14.967531,-62.22922 8.596163,-121.51283" /><path
     id="path2368"
     d="m -59.567105,-352.75604 c -9.92785,-58.79267 23.306402,-63.04085 18.126302,-122.4404" /><path
     id="path2370"
     d="m -59.567105,-352.75604 c -9.92785,-58.79267 31.659885,-63.68493 27.67314,-123.17649" /><path
     id="path2372"
     d="m -59.567105,-352.75604 c -9.92785,-58.79267 40.024613,-64.1612 37.232829,-123.7208" /><path
     id="path2374"
     d="m -59.567105,-352.75604 c -9.92785,-58.79267 48.397216,-64.46947 46.801518,-124.07311" /></g></svg>
