<?xml version="1.0" encoding="utf-8"?>
<!-- Generator: Adobe Illustrator 22.0.0, SVG Export Plug-In . SVG Version: 6.00 Build 0)  -->
<svg version="1.1" id="Layer_1" xmlns="http://www.w3.org/2000/svg" xmlns:xlink="http://www.w3.org/1999/xlink" x="0px" y="0px"
	 viewBox="0 0 595.3 841.9" style="enable-background:new 0 0 595.3 841.9;" xml:space="preserve">
<style type="text/css">
	.st0{fill:none;stroke:#565656;stroke-width:1.5;stroke-opacity:0.4;}
	.st1{fill:none;stroke:#565656;stroke-width:1.5;}
</style>
<g>
	<g>
		<g>
			<path class="st0" d="M155.9,266.5c18.2,0,18.2-105.6,36.4-105.6"/>
			<path class="st0" d="M155.9,266.5c18.2,0,18.2-83,36.4-83"/>
			<path class="st0" d="M155.9,266.5c18.2,0,18.2-66.4,36.4-66.4"/>
			<path class="st0" d="M155.9,266.5c18.2,0,18.2-56.2,36.4-56.2"/>
			<path class="st0" d="M155.9,266.5c18.2,0,18.2-50.6,36.4-50.6"/>
			<path class="st0" d="M155.9,266.5c18.2,0,18.2-41.9,36.4-41.9"/>
			<path class="st0" d="M155.9,266.5c18.2,0,18.2-11.1,36.4-11.1"/>
			<path class="st0" d="M155.9,266.5c18.2,0,18.2,21.4,36.4,21.4"/>
			<path class="st0" d="M155.9,266.5c18.2,0,18.2,47.1,36.4,47.1"/>
			<path class="st0" d="M155.9,266.5c18.2,0,18.2,105.6,36.4,105.6"/>
			<path class="st0" d="M192.4,160.9c18.2,0,18.2-7.5,36.4-7.5"/>
			<path class="st0" d="M192.4,160.9c18.2,0,18.2,1.2,36.4,1.2"/>
			<path class="st0" d="M192.4,160.9c18.2,0,18.2,7.5,36.4,7.5"/>
			<path class="st0" d="M192.4,183.4c18.2,0,18.2-8.7,36.4-8.7"/>
			<path class="st0" d="M192.4,183.4c18.2,0,18.2-7.1,36.4-7.1"/>
			<path class="st0" d="M192.4,183.4c18.2,0,18.2-5.5,36.4-5.5"/>
			<path class="st0" d="M192.4,183.4c18.2,0,18.2-4,36.4-4"/>
			<path class="st0" d="M192.4,183.4c18.2,0,18.2-2.4,36.4-2.4"/>
			<path class="st0" d="M192.4,183.4c18.2,0,18.2-0.8,36.4-0.8"/>
			<path class="st0" d="M192.4,183.4c18.2,0,18.2,0.8,36.4,0.8"/>
			<path class="st0" d="M192.4,183.4c18.2,0,18.2,2.4,36.4,2.4"/>
			<path class="st0" d="M192.4,183.4c18.2,0,18.2,4,36.4,4"/>
			<path class="st0" d="M192.4,183.4c18.2,0,18.2,5.5,36.4,5.5"/>
			<path class="st0" d="M192.4,183.4c18.2,0,18.2,7.1,36.4,7.1"/>
			<path class="st0" d="M192.4,183.4c18.2,0,18.2,8.7,36.4,8.7"/>
			<path class="st0" d="M192.4,200c18.2,0,18.2-4.7,36.4-4.7"/>
			<path class="st0" d="M192.4,200c18.2,0,18.2-3.2,36.4-3.2"/>
			<path class="st0" d="M192.4,200c18.2,0,18.2-1.6,36.4-1.6"/>
			<path class="st0" d="M192.4,200c18.2,0,18.2,0,36.4,0"/>
			<path class="st0" d="M192.4,200c18.2,0,18.2,1.6,36.4,1.6"/>
			<path class="st0" d="M192.4,200c18.2,0,18.2,3.2,36.4,3.2"/>
			<path class="st0" d="M192.4,200c18.2,0,18.2,4.7,36.4,4.7"/>
			<path class="st0" d="M192.4,210.3c18.2,0,18.2-2.4,36.4-2.4"/>
			<path class="st0" d="M192.4,210.3c18.2,0,18.2-0.8,36.4-0.8"/>
			<path class="st0" d="M192.4,210.3c18.2,0,18.2,0.8,36.4,0.8"/>
			<path class="st0" d="M192.4,210.3c18.2,0,18.2,2.4,36.4,2.4"/>
			<path class="st0" d="M192.4,215.8c18.2,0,18.2,0,36.4,0"/>
			<path class="st0" d="M192.4,224.5c18.2,0,18.2-5.5,36.4-5.5"/>
			<path class="st0" d="M192.4,224.5c18.2,0,18.2-4,36.4-4"/>
			<path class="st0" d="M192.4,224.5c18.2,0,18.2-2.4,36.4-2.4"/>
			<path class="st0" d="M192.4,224.5c18.2,0,18.2-0.8,36.4-0.8"/>
			<path class="st0" d="M192.4,224.5c18.2,0,18.2,0.8,36.4,0.8"/>
			<path class="st0" d="M192.4,224.5c18.2,0,18.2,2.4,36.4,2.4"/>
			<path class="st0" d="M192.4,224.5c18.2,0,18.2,4,36.4,4"/>
			<path class="st0" d="M192.4,224.5c18.2,0,18.2,5.5,36.4,5.5"/>
			<path class="st0" d="M192.4,255.4c18.2,0,18.2-22.1,36.4-22.1"/>
			<path class="st0" d="M192.4,255.4c18.2,0,18.2-20.6,36.4-20.6"/>
			<path class="st0" d="M192.4,255.4c18.2,0,18.2-19,36.4-19"/>
			<path class="st0" d="M192.4,255.4c18.2,0,18.2-17.4,36.4-17.4"/>
			<path class="st0" d="M192.4,255.4c18.2,0,18.2-15.8,36.4-15.8"/>
			<path class="st0" d="M192.4,255.4c18.2,0,18.2-14.2,36.4-14.2"/>
			<path class="st0" d="M192.4,255.4c18.2,0,18.2-12.7,36.4-12.7"/>
			<path class="st0" d="M192.4,255.4c18.2,0,18.2-11.1,36.4-11.1"/>
			<path class="st0" d="M192.4,255.4c18.2,0,18.2-9.5,36.4-9.5"/>
			<path class="st0" d="M192.4,255.4c18.2,0,18.2-7.9,36.4-7.9"/>
			<path class="st0" d="M192.4,255.4c18.2,0,18.2-6.3,36.4-6.3"/>
			<path class="st0" d="M192.4,255.4c18.2,0,18.2-4.7,36.4-4.7"/>
			<path class="st0" d="M192.4,255.4c18.2,0,18.2-3.2,36.4-3.2"/>
			<path class="st0" d="M192.4,255.4c18.2,0,18.2-1.6,36.4-1.6"/>
			<path class="st0" d="M192.4,255.4c18.2,0,18.2,0,36.4,0"/>
			<path class="st0" d="M192.4,255.4c18.2,0,18.2,1.6,36.4,1.6"/>
			<path class="st0" d="M192.4,255.4c18.2,0,18.2,3.2,36.4,3.2"/>
			<path class="st0" d="M192.4,255.4c18.2,0,18.2,4.7,36.4,4.7"/>
			<path class="st0" d="M192.4,255.4c18.2,0,18.2,6.3,36.4,6.3"/>
			<path class="st0" d="M192.4,255.4c18.2,0,18.2,7.9,36.4,7.9"/>
			<path class="st0" d="M192.4,255.4c18.2,0,18.2,9.5,36.4,9.5"/>
			<path class="st0" d="M192.4,255.4c18.2,0,18.2,11.1,36.4,11.1"/>
			<path class="st0" d="M192.4,255.4c18.2,0,18.2,12.7,36.4,12.7"/>
			<path class="st0" d="M192.4,255.4c18.2,0,18.2,14.2,36.4,14.2"/>
			<path class="st0" d="M192.4,255.4c18.2,0,18.2,15.8,36.4,15.8"/>
			<path class="st0" d="M192.4,255.4c18.2,0,18.2,17.4,36.4,17.4"/>
			<path class="st0" d="M192.4,255.4c18.2,0,18.2,19,36.4,19"/>
			<path class="st0" d="M192.4,255.4c18.2,0,18.2,20.6,36.4,20.6"/>
			<path class="st0" d="M192.4,255.4c18.2,0,18.2,22.1,36.4,22.1"/>
			<path class="st0" d="M192.4,287.8c18.2,0,18.2-7.1,36.4-7.1"/>
			<path class="st0" d="M192.4,287.8c18.2,0,18.2-5.5,36.4-5.5"/>
			<path class="st0" d="M192.4,287.8c18.2,0,18.2-4,36.4-4"/>
			<path class="st0" d="M192.4,287.8c18.2,0,18.2-2.4,36.4-2.4"/>
			<path class="st0" d="M192.4,287.8c18.2,0,18.2-0.8,36.4-0.8"/>
			<path class="st0" d="M192.4,287.8c18.2,0,18.2,0.8,36.4,0.8"/>
			<path class="st0" d="M192.4,287.8c18.2,0,18.2,2.4,36.4,2.4"/>
			<path class="st0" d="M192.4,287.8c18.2,0,18.2,4,36.4,4"/>
			<path class="st0" d="M192.4,287.8c18.2,0,18.2,5.5,36.4,5.5"/>
			<path class="st0" d="M192.4,287.8c18.2,0,18.2,7.1,36.4,7.1"/>
			<path class="st0" d="M192.4,313.5c18.2,0,18.2-15.4,36.4-15.4"/>
			<path class="st0" d="M192.4,313.5c18.2,0,18.2-13.8,36.4-13.8"/>
			<path class="st0" d="M192.4,313.5c18.2,0,18.2-12.3,36.4-12.3"/>
			<path class="st0" d="M192.4,313.5c18.2,0,18.2-10.7,36.4-10.7"/>
			<path class="st0" d="M192.4,313.5c18.2,0,18.2-9.1,36.4-9.1"/>
			<path class="st0" d="M192.4,313.5c18.2,0,18.2-7.5,36.4-7.5"/>
			<path class="st0" d="M192.4,313.5c18.2,0,18.2-5.9,36.4-5.9"/>
			<path class="st0" d="M192.4,313.5c18.2,0,18.2-4.4,36.4-4.4"/>
			<path class="st0" d="M192.4,313.5c18.2,0,18.2-2.8,36.4-2.8"/>
			<path class="st0" d="M192.4,313.5c18.2,0,18.2-1.2,36.4-1.2"/>
			<path class="st0" d="M192.4,313.5c18.2,0,18.2,0.4,36.4,0.4"/>
			<path class="st0" d="M192.4,313.5c18.2,0,18.2,2.8,36.4,2.8"/>
			<path class="st0" d="M192.4,313.5c18.2,0,18.2,5.1,36.4,5.1"/>
			<path class="st0" d="M192.4,313.5c18.2,0,18.2,7.5,36.4,7.5"/>
			<path class="st0" d="M192.4,313.5c18.2,0,18.2,9.1,36.4,9.1"/>
			<path class="st0" d="M192.4,313.5c18.2,0,18.2,10.7,36.4,10.7"/>
			<path class="st0" d="M192.4,313.5c18.2,0,18.2,12.3,36.4,12.3"/>
			<path class="st0" d="M192.4,313.5c18.2,0,18.2,13.8,36.4,13.8"/>
			<path class="st0" d="M192.4,313.5c18.2,0,18.2,15.4,36.4,15.4"/>
			<path class="st0" d="M192.4,372c18.2,0,18.2-39.9,36.4-39.9"/>
			<path class="st0" d="M192.4,372c18.2,0,18.2-25.7,36.4-25.7"/>
			<path class="st0" d="M192.4,372c18.2,0,18.2-8.3,36.4-8.3"/>
			<path class="st0" d="M192.4,372c18.2,0,18.2,3.6,36.4,3.6"/>
			<path class="st0" d="M192.4,372c18.2,0,18.2,10.7,36.4,10.7"/>
			<path class="st0" d="M192.4,372c18.2,0,18.2,38.4,36.4,38.4"/>
			<path class="st0" d="M192.4,372c18.2,0,18.2,39.9,36.4,39.9"/>
			<path class="st0" d="M228.8,153.4c18.2,0,18.2-2.4,36.4-2.4"/>
			<path class="st0" d="M228.8,153.4c18.2,0,18.2-0.8,36.4-0.8"/>
			<path class="st0" d="M228.8,153.4c18.2,0,18.2,0.8,36.4,0.8"/>
			<path class="st0" d="M228.8,153.4c18.2,0,18.2,2.4,36.4,2.4"/>
			<path class="st0" d="M228.8,162.1c18.2,0,18.2-3.2,36.4-3.2"/>
			<path class="st0" d="M228.8,162.1c18.2,0,18.2-1.6,36.4-1.6"/>
			<path class="st0" d="M228.8,162.1c18.2,0,18.2,0,36.4,0"/>
			<path class="st0" d="M228.8,162.1c18.2,0,18.2,1.6,36.4,1.6"/>
			<path class="st0" d="M228.8,162.1c18.2,0,18.2,3.2,36.4,3.2"/>
			<path class="st0" d="M228.8,168.4c18.2,0,18.2,0,36.4,0"/>
			<path class="st0" d="M228.8,177.9c18.2,0,18.2-6.3,36.4-6.3"/>
			<path class="st0" d="M228.8,177.9c18.2,0,18.2-4.7,36.4-4.7"/>
			<path class="st0" d="M228.8,177.9c18.2,0,18.2-3.2,36.4-3.2"/>
			<path class="st0" d="M228.8,177.9c18.2,0,18.2-1.6,36.4-1.6"/>
			<path class="st0" d="M228.8,177.9c18.2,0,18.2,0,36.4,0"/>
			<path class="st0" d="M228.8,177.9c18.2,0,18.2,1.6,36.4,1.6"/>
			<path class="st0" d="M228.8,177.9c18.2,0,18.2,3.2,36.4,3.2"/>
			<path class="st0" d="M228.8,177.9c18.2,0,18.2,4.7,36.4,4.7"/>
			<path class="st0" d="M228.8,177.9c18.2,0,18.2,6.3,36.4,6.3"/>
			<path class="st0" d="M228.8,195.3c18.2,0,18.2-3.2,36.4-3.2"/>
			<path class="st0" d="M228.8,195.3c18.2,0,18.2-1.6,36.4-1.6"/>
			<path class="st0" d="M228.8,195.3c18.2,0,18.2,0,36.4,0"/>
			<path class="st0" d="M228.8,195.3c18.2,0,18.2,1.6,36.4,1.6"/>
			<path class="st0" d="M228.8,195.3c18.2,0,18.2,3.2,36.4,3.2"/>
			<path class="st0" d="M228.8,261.7c18.2,0,18.2-24.5,36.4-24.5"/>
			<path class="st0" d="M228.8,261.7c18.2,0,18.2-22.9,36.4-22.9"/>
			<path class="st0" d="M228.8,261.7c18.2,0,18.2-21.4,36.4-21.4"/>
			<path class="st0" d="M228.8,261.7c18.2,0,18.2-19.8,36.4-19.8"/>
			<path class="st0" d="M228.8,261.7c18.2,0,18.2-18.2,36.4-18.2"/>
			<path class="st0" d="M228.8,261.7c18.2,0,18.2-16.6,36.4-16.6"/>
			<path class="st0" d="M228.8,261.7c18.2,0,18.2-15,36.4-15"/>
			<path class="st0" d="M228.8,261.7c18.2,0,18.2-13.4,36.4-13.4"/>
			<path class="st0" d="M228.8,261.7c18.2,0,18.2-11.9,36.4-11.9"/>
			<path class="st0" d="M228.8,261.7c18.2,0,18.2-10.3,36.4-10.3"/>
			<path class="st0" d="M228.8,261.7c18.2,0,18.2-8.7,36.4-8.7"/>
			<path class="st0" d="M228.8,261.7c18.2,0,18.2-7.1,36.4-7.1"/>
			<path class="st0" d="M228.8,261.7c18.2,0,18.2-5.5,36.4-5.5"/>
			<path class="st0" d="M228.8,261.7c18.2,0,18.2-4,36.4-4"/>
			<path class="st0" d="M228.8,261.7c18.2,0,18.2-2.4,36.4-2.4"/>
			<path class="st0" d="M228.8,261.7c18.2,0,18.2-0.8,36.4-0.8"/>
			<path class="st0" d="M228.8,261.7c18.2,0,18.2,0.8,36.4,0.8"/>
			<path class="st0" d="M228.8,261.7c18.2,0,18.2,2.4,36.4,2.4"/>
			<path class="st0" d="M228.8,261.7c18.2,0,18.2,4,36.4,4"/>
			<path class="st0" d="M228.8,261.7c18.2,0,18.2,5.5,36.4,5.5"/>
			<path class="st0" d="M228.8,261.7c18.2,0,18.2,7.1,36.4,7.1"/>
			<path class="st0" d="M228.8,261.7c18.2,0,18.2,8.7,36.4,8.7"/>
			<path class="st0" d="M228.8,261.7c18.2,0,18.2,10.3,36.4,10.3"/>
			<path class="st0" d="M228.8,261.7c18.2,0,18.2,11.9,36.4,11.9"/>
			<path class="st0" d="M228.8,261.7c18.2,0,18.2,13.4,36.4,13.4"/>
			<path class="st0" d="M228.8,261.7c18.2,0,18.2,15,36.4,15"/>
			<path class="st0" d="M228.8,261.7c18.2,0,18.2,16.6,36.4,16.6"/>
			<path class="st0" d="M228.8,261.7c18.2,0,18.2,18.2,36.4,18.2"/>
			<path class="st0" d="M228.8,261.7c18.2,0,18.2,19.8,36.4,19.8"/>
			<path class="st0" d="M228.8,261.7c18.2,0,18.2,21.4,36.4,21.4"/>
			<path class="st0" d="M228.8,261.7c18.2,0,18.2,22.9,36.4,22.9"/>
			<path class="st0" d="M228.8,261.7c18.2,0,18.2,24.5,36.4,24.5"/>
			<path class="st0" d="M228.8,307.6c18.2,0,18.2-0.8,36.4-0.8"/>
			<path class="st0" d="M228.8,307.6c18.2,0,18.2,0.8,36.4,0.8"/>
			<path class="st0" d="M228.8,313.9c18.2,0,18.2-1.6,36.4-1.6"/>
			<path class="st0" d="M228.8,313.9c18.2,0,18.2,0,36.4,0"/>
			<path class="st0" d="M228.8,313.9c18.2,0,18.2,1.6,36.4,1.6"/>
			<path class="st0" d="M228.8,321c18.2,0,18.2-2.4,36.4-2.4"/>
			<path class="st0" d="M228.8,321c18.2,0,18.2-0.8,36.4-0.8"/>
			<path class="st0" d="M228.8,321c18.2,0,18.2,0.8,36.4,0.8"/>
			<path class="st0" d="M228.8,321c18.2,0,18.2,2.4,36.4,2.4"/>
			<path class="st0" d="M228.8,332.1c18.2,0,18.2-3.2,36.4-3.2"/>
			<path class="st0" d="M228.8,332.1c18.2,0,18.2-1.6,36.4-1.6"/>
			<path class="st0" d="M228.8,332.1c18.2,0,18.2,0,36.4,0"/>
			<path class="st0" d="M228.8,332.1c18.2,0,18.2,1.6,36.4,1.6"/>
			<path class="st0" d="M228.8,332.1c18.2,0,18.2,3.2,36.4,3.2"/>
			<path class="st0" d="M228.8,346.3c18.2,0,18.2-7.9,36.4-7.9"/>
			<path class="st0" d="M228.8,346.3c18.2,0,18.2-6.3,36.4-6.3"/>
			<path class="st0" d="M228.8,346.3c18.2,0,18.2-4.7,36.4-4.7"/>
			<path class="st0" d="M228.8,346.3c18.2,0,18.2-3.2,36.4-3.2"/>
			<path class="st0" d="M228.8,346.3c18.2,0,18.2-1.6,36.4-1.6"/>
			<path class="st0" d="M228.8,346.3c18.2,0,18.2,0,36.4,0"/>
			<path class="st0" d="M228.8,346.3c18.2,0,18.2,1.6,36.4,1.6"/>
			<path class="st0" d="M228.8,346.3c18.2,0,18.2,3.2,36.4,3.2"/>
			<path class="st0" d="M228.8,346.3c18.2,0,18.2,4.7,36.4,4.7"/>
			<path class="st0" d="M228.8,346.3c18.2,0,18.2,6.3,36.4,6.3"/>
			<path class="st0" d="M228.8,346.3c18.2,0,18.2,7.9,36.4,7.9"/>
			<path class="st0" d="M228.8,363.7c18.2,0,18.2-6.3,36.4-6.3"/>
			<path class="st0" d="M228.8,363.7c18.2,0,18.2-4.7,36.4-4.7"/>
			<path class="st0" d="M228.8,363.7c18.2,0,18.2-3.2,36.4-3.2"/>
			<path class="st0" d="M228.8,363.7c18.2,0,18.2-1.6,36.4-1.6"/>
			<path class="st0" d="M228.8,363.7c18.2,0,18.2,0,36.4,0"/>
			<path class="st0" d="M228.8,363.7c18.2,0,18.2,1.6,36.4,1.6"/>
			<path class="st0" d="M228.8,363.7c18.2,0,18.2,3.2,36.4,3.2"/>
			<path class="st0" d="M228.8,363.7c18.2,0,18.2,4.7,36.4,4.7"/>
			<path class="st0" d="M228.8,363.7c18.2,0,18.2,6.3,36.4,6.3"/>
			<path class="st0" d="M228.8,375.6c18.2,0,18.2-2.4,36.4-2.4"/>
			<path class="st0" d="M228.8,375.6c18.2,0,18.2-0.8,36.4-0.8"/>
			<path class="st0" d="M228.8,375.6c18.2,0,18.2,0.8,36.4,0.8"/>
			<path class="st0" d="M228.8,375.6c18.2,0,18.2,2.4,36.4,2.4"/>
			<path class="st0" d="M228.8,382.7c18.2,0,18.2-1.6,36.4-1.6"/>
			<path class="st0" d="M228.8,382.7c18.2,0,18.2,0,36.4,0"/>
			<path class="st0" d="M228.8,382.7c18.2,0,18.2,1.6,36.4,1.6"/>
			<path class="st0" d="M228.8,410.4c18.2,0,18.2-22.9,36.4-22.9"/>
			<path class="st0" d="M228.8,410.4c18.2,0,18.2-15,36.4-15"/>
			<path class="st0" d="M228.8,410.4c18.2,0,18.2-7.1,36.4-7.1"/>
			<path class="st0" d="M228.8,410.4c18.2,0,18.2-4,36.4-4"/>
			<path class="st0" d="M228.8,410.4c18.2,0,18.2-0.8,36.4-0.8"/>
			<path class="st0" d="M228.8,410.4c18.2,0,18.2,15,36.4,15"/>
			<path class="st0" d="M228.8,410.4c18.2,0,18.2,16.6,36.4,16.6"/>
			<path class="st0" d="M228.8,410.4c18.2,0,18.2,18.2,36.4,18.2"/>
			<path class="st0" d="M228.8,410.4c18.2,0,18.2,19.8,36.4,19.8"/>
			<path class="st0" d="M228.8,410.4c18.2,0,18.2,21.4,36.4,21.4"/>
			<path class="st0" d="M228.8,410.4c18.2,0,18.2,22.9,36.4,22.9"/>
			<path class="st0" d="M265.2,365.3c18.2,0,18.2-2.4,36.4-2.4"/>
			<path class="st0" d="M265.2,365.3c18.2,0,18.2-0.8,36.4-0.8"/>
			<path class="st0" d="M265.2,365.3c18.2,0,18.2,0.8,36.4,0.8"/>
			<path class="st0" d="M265.2,365.3c18.2,0,18.2,2.4,36.4,2.4"/>
			<path class="st0" d="M265.2,387.5c18.2,0,18.2-1.6,36.4-1.6"/>
			<path class="st0" d="M265.2,387.5c18.2,0,18.2,0,36.4,0"/>
			<path class="st0" d="M265.2,387.5c18.2,0,18.2,1.6,36.4,1.6"/>
			<path class="st0" d="M265.2,395.4c18.2,0,18.2-3.2,36.4-3.2"/>
			<path class="st0" d="M265.2,395.4c18.2,0,18.2-1.6,36.4-1.6"/>
			<path class="st0" d="M265.2,395.4c18.2,0,18.2,0,36.4,0"/>
			<path class="st0" d="M265.2,395.4c18.2,0,18.2,1.6,36.4,1.6"/>
			<path class="st0" d="M265.2,395.4c18.2,0,18.2,3.2,36.4,3.2"/>
			<path class="st0" d="M265.2,403.3c18.2,0,18.2-1.6,36.4-1.6"/>
			<path class="st0" d="M265.2,403.3c18.2,0,18.2,0,36.4,0"/>
			<path class="st0" d="M265.2,403.3c18.2,0,18.2,1.6,36.4,1.6"/>
			<path class="st0" d="M265.2,409.6c18.2,0,18.2-1.6,36.4-1.6"/>
			<path class="st0" d="M265.2,409.6c18.2,0,18.2,0,36.4,0"/>
			<path class="st0" d="M265.2,409.6c18.2,0,18.2,1.6,36.4,1.6"/>
			<path class="st0" d="M265.2,425.4c18.2,0,18.2-11.1,36.4-11.1"/>
			<path class="st0" d="M265.2,425.4c18.2,0,18.2-9.5,36.4-9.5"/>
			<path class="st0" d="M265.2,425.4c18.2,0,18.2-7.9,36.4-7.9"/>
			<path class="st0" d="M265.2,425.4c18.2,0,18.2-6.3,36.4-6.3"/>
			<path class="st0" d="M265.2,425.4c18.2,0,18.2-4.7,36.4-4.7"/>
			<path class="st0" d="M265.2,425.4c18.2,0,18.2-3.2,36.4-3.2"/>
			<path class="st0" d="M265.2,425.4c18.2,0,18.2-1.6,36.4-1.6"/>
			<path class="st0" d="M265.2,425.4c18.2,0,18.2,0,36.4,0"/>
			<path class="st0" d="M265.2,425.4c18.2,0,18.2,1.6,36.4,1.6"/>
			<path class="st0" d="M265.2,425.4c18.2,0,18.2,3.2,36.4,3.2"/>
			<path class="st0" d="M265.2,425.4c18.2,0,18.2,4.7,36.4,4.7"/>
			<path class="st0" d="M265.2,425.4c18.2,0,18.2,6.3,36.4,6.3"/>
			<path class="st0" d="M265.2,425.4c18.2,0,18.2,7.9,36.4,7.9"/>
			<path class="st0" d="M265.2,425.4c18.2,0,18.2,9.5,36.4,9.5"/>
			<path class="st0" d="M265.2,425.4c18.2,0,18.2,11.1,36.4,11.1"/>
		</g>
		<g>
			<path class="st0" d="M411,300.5c-18.2,0-18.2,105.6-36.4,105.6"/>
			<path class="st0" d="M411,300.5c-18.2,0-18.2,83-36.4,83"/>
			<path class="st0" d="M411,300.5c-18.2,0-18.2,66.4-36.4,66.4"/>
			<path class="st0" d="M411,300.5c-18.2,0-18.2,56.2-36.4,56.2"/>
			<path class="st0" d="M411,300.5c-18.2,0-18.2,50.6-36.4,50.6"/>
			<path class="st0" d="M411,300.5c-18.2,0-18.2,41.9-36.4,41.9"/>
			<path class="st0" d="M411,300.5c-18.2,0-18.2,11.1-36.4,11.1"/>
			<path class="st0" d="M411,300.5c-18.2,0-18.2-21.4-36.4-21.4"/>
			<path class="st0" d="M411,300.5c-18.2,0-18.2-47.1-36.4-47.1"/>
			<path class="st0" d="M411,300.5c-18.2,0-18.2-105.6-36.4-105.6"/>
			<path class="st0" d="M374.6,406.1c-18.2,0-18.2,7.5-36.4,7.5"/>
			<path class="st0" d="M374.6,406.1c-18.2,0-18.2-1.2-36.4-1.2"/>
			<path class="st0" d="M374.6,406.1c-18.2,0-18.2-7.5-36.4-7.5"/>
			<path class="st0" d="M374.6,383.5c-18.2,0-18.2,8.7-36.4,8.7"/>
			<path class="st0" d="M374.6,383.5c-18.2,0-18.2,7.1-36.4,7.1"/>
			<path class="st0" d="M374.6,383.5c-18.2,0-18.2,5.5-36.4,5.5"/>
			<path class="st0" d="M374.6,383.5c-18.2,0-18.2,4-36.4,4"/>
			<path class="st0" d="M374.6,383.5c-18.2,0-18.2,2.4-36.4,2.4"/>
			<path class="st0" d="M374.6,383.5c-18.2,0-18.2,0.8-36.4,0.8"/>
			<path class="st0" d="M374.6,383.5c-18.2,0-18.2-0.8-36.4-0.8"/>
			<path class="st0" d="M374.6,383.5c-18.2,0-18.2-2.4-36.4-2.4"/>
			<path class="st0" d="M374.6,383.5c-18.2,0-18.2-4-36.4-4"/>
			<path class="st0" d="M374.6,383.5c-18.2,0-18.2-5.5-36.4-5.5"/>
			<path class="st0" d="M374.6,383.5c-18.2,0-18.2-7.1-36.4-7.1"/>
			<path class="st0" d="M374.6,383.5c-18.2,0-18.2-8.7-36.4-8.7"/>
			<path class="st0" d="M374.6,366.9c-18.2,0-18.2,4.7-36.4,4.7"/>
			<path class="st0" d="M374.6,366.9c-18.2,0-18.2,3.2-36.4,3.2"/>
			<path class="st0" d="M374.6,366.9c-18.2,0-18.2,1.6-36.4,1.6"/>
			<path class="st0" d="M374.6,366.9c-18.2,0-18.2,0-36.4,0"/>
			<path class="st0" d="M374.6,366.9c-18.2,0-18.2-1.6-36.4-1.6"/>
			<path class="st0" d="M374.6,366.9c-18.2,0-18.2-3.2-36.4-3.2"/>
			<path class="st0" d="M374.6,366.9c-18.2,0-18.2-4.7-36.4-4.7"/>
			<path class="st0" d="M374.6,356.6c-18.2,0-18.2,2.4-36.4,2.4"/>
			<path class="st0" d="M374.6,356.6c-18.2,0-18.2,0.8-36.4,0.8"/>
			<path class="st0" d="M374.6,356.6c-18.2,0-18.2-0.8-36.4-0.8"/>
			<path class="st0" d="M374.6,356.6c-18.2,0-18.2-2.4-36.4-2.4"/>
			<path class="st0" d="M374.6,351.1c-18.2,0-18.2,0-36.4,0"/>
			<path class="st0" d="M374.6,342.4c-18.2,0-18.2,5.5-36.4,5.5"/>
			<path class="st0" d="M374.6,342.4c-18.2,0-18.2,4-36.4,4"/>
			<path class="st0" d="M374.6,342.4c-18.2,0-18.2,2.4-36.4,2.4"/>
			<path class="st0" d="M374.6,342.4c-18.2,0-18.2,0.8-36.4,0.8"/>
			<path class="st0" d="M374.6,342.4c-18.2,0-18.2-0.8-36.4-0.8"/>
			<path class="st0" d="M374.6,342.4c-18.2,0-18.2-2.4-36.4-2.4"/>
			<path class="st0" d="M374.6,342.4c-18.2,0-18.2-4-36.4-4"/>
			<path class="st0" d="M374.6,342.4c-18.2,0-18.2-5.5-36.4-5.5"/>
			<path class="st0" d="M374.6,311.5c-18.2,0-18.2,22.1-36.4,22.1"/>
			<path class="st0" d="M374.6,311.5c-18.2,0-18.2,20.6-36.4,20.6"/>
			<path class="st0" d="M374.6,311.5c-18.2,0-18.2,19-36.4,19"/>
			<path class="st0" d="M374.6,311.5c-18.2,0-18.2,17.4-36.4,17.4"/>
			<path class="st0" d="M374.6,311.5c-18.2,0-18.2,15.8-36.4,15.8"/>
			<path class="st0" d="M374.6,311.5c-18.2,0-18.2,14.2-36.4,14.2"/>
			<path class="st0" d="M374.6,311.5c-18.2,0-18.2,12.7-36.4,12.7"/>
			<path class="st0" d="M374.6,311.5c-18.2,0-18.2,11.1-36.4,11.1"/>
			<path class="st0" d="M374.6,311.5c-18.2,0-18.2,9.5-36.4,9.5"/>
			<path class="st0" d="M374.6,311.5c-18.2,0-18.2,7.9-36.4,7.9"/>
			<path class="st0" d="M374.6,311.5c-18.2,0-18.2,6.3-36.4,6.3"/>
			<path class="st0" d="M374.6,311.5c-18.2,0-18.2,4.7-36.4,4.7"/>
			<path class="st0" d="M374.6,311.5c-18.2,0-18.2,3.2-36.4,3.2"/>
			<path class="st0" d="M374.6,311.5c-18.2,0-18.2,1.6-36.4,1.6"/>
			<path class="st0" d="M374.6,311.5c-18.2,0-18.2,0-36.4,0"/>
			<path class="st0" d="M374.6,311.5c-18.2,0-18.2-1.6-36.4-1.6"/>
			<path class="st0" d="M374.6,311.5c-18.2,0-18.2-3.2-36.4-3.2"/>
			<path class="st0" d="M374.6,311.5c-18.2,0-18.2-4.7-36.4-4.7"/>
			<path class="st0" d="M374.6,311.5c-18.2,0-18.2-6.3-36.4-6.3"/>
			<path class="st0" d="M374.6,311.5c-18.2,0-18.2-7.9-36.4-7.9"/>
			<path class="st0" d="M374.6,311.5c-18.2,0-18.2-9.5-36.4-9.5"/>
			<path class="st0" d="M374.6,311.5c-18.2,0-18.2-11.1-36.4-11.1"/>
			<path class="st0" d="M374.6,311.5c-18.2,0-18.2-12.7-36.4-12.7"/>
			<path class="st0" d="M374.6,311.5c-18.2,0-18.2-14.2-36.4-14.2"/>
			<path class="st0" d="M374.6,311.5c-18.2,0-18.2-15.8-36.4-15.8"/>
			<path class="st0" d="M374.6,311.5c-18.2,0-18.2-17.4-36.4-17.4"/>
			<path class="st0" d="M374.6,311.5c-18.2,0-18.2-19-36.4-19"/>
			<path class="st0" d="M374.6,311.5c-18.2,0-18.2-20.6-36.4-20.6"/>
			<path class="st0" d="M374.6,311.5c-18.2,0-18.2-22.1-36.4-22.1"/>
			<path class="st0" d="M374.6,279.1c-18.2,0-18.2,7.1-36.4,7.1"/>
			<path class="st0" d="M374.6,279.1c-18.2,0-18.2,5.5-36.4,5.5"/>
			<path class="st0" d="M374.6,279.1c-18.2,0-18.2,4-36.4,4"/>
			<path class="st0" d="M374.6,279.1c-18.2,0-18.2,2.4-36.4,2.4"/>
			<path class="st0" d="M374.6,279.1c-18.2,0-18.2,0.8-36.4,0.8"/>
			<path class="st0" d="M374.6,279.1c-18.2,0-18.2-0.8-36.4-0.8"/>
			<path class="st0" d="M374.6,279.1c-18.2,0-18.2-2.4-36.4-2.4"/>
			<path class="st0" d="M374.6,279.1c-18.2,0-18.2-4-36.4-4"/>
			<path class="st0" d="M374.6,279.1c-18.2,0-18.2-5.5-36.4-5.5"/>
			<path class="st0" d="M374.6,279.1c-18.2,0-18.2-7.1-36.4-7.1"/>
			<path class="st0" d="M374.6,253.4c-18.2,0-18.2,15.4-36.4,15.4"/>
			<path class="st0" d="M374.6,253.4c-18.2,0-18.2,13.8-36.4,13.8"/>
			<path class="st0" d="M374.6,253.4c-18.2,0-18.2,12.3-36.4,12.3"/>
			<path class="st0" d="M374.6,253.4c-18.2,0-18.2,10.7-36.4,10.7"/>
			<path class="st0" d="M374.6,253.4c-18.2,0-18.2,9.1-36.4,9.1"/>
			<path class="st0" d="M374.6,253.4c-18.2,0-18.2,7.5-36.4,7.5"/>
			<path class="st0" d="M374.6,253.4c-18.2,0-18.2,5.9-36.4,5.9"/>
			<path class="st0" d="M374.6,253.4c-18.2,0-18.2,4.4-36.4,4.4"/>
			<path class="st0" d="M374.6,253.4c-18.2,0-18.2,2.8-36.4,2.8"/>
			<path class="st0" d="M374.6,253.4c-18.2,0-18.2,1.2-36.4,1.2"/>
			<path class="st0" d="M374.6,253.4c-18.2,0-18.2-0.4-36.4-0.4"/>
			<path class="st0" d="M374.6,253.4c-18.2,0-18.2-2.8-36.4-2.8"/>
			<path class="st0" d="M374.6,253.4c-18.2,0-18.2-5.1-36.4-5.1"/>
			<path class="st0" d="M374.6,253.4c-18.2,0-18.2-7.5-36.4-7.5"/>
			<path class="st0" d="M374.6,253.4c-18.2,0-18.2-9.1-36.4-9.1"/>
			<path class="st0" d="M374.6,253.4c-18.2,0-18.2-10.7-36.4-10.7"/>
			<path class="st0" d="M374.6,253.4c-18.2,0-18.2-12.3-36.4-12.3"/>
			<path class="st0" d="M374.6,253.4c-18.2,0-18.2-13.8-36.4-13.8"/>
			<path class="st0" d="M374.6,253.4c-18.2,0-18.2-15.4-36.4-15.4"/>
			<path class="st0" d="M374.6,194.9c-18.2,0-18.2,39.9-36.4,39.9"/>
			<path class="st0" d="M374.6,194.9c-18.2,0-18.2,25.7-36.4,25.7"/>
			<path class="st0" d="M374.6,194.9c-18.2,0-18.2,8.3-36.4,8.3"/>
			<path class="st0" d="M374.6,194.9c-18.2,0-18.2-3.6-36.4-3.6"/>
			<path class="st0" d="M374.6,194.9c-18.2,0-18.2-10.7-36.4-10.7"/>
			<path class="st0" d="M374.6,194.9c-18.2,0-18.2-38.4-36.4-38.4"/>
			<path class="st0" d="M374.6,194.9c-18.2,0-18.2-39.9-36.4-39.9"/>
			<path class="st0" d="M338.1,413.6c-18.2,0-18.2,2.4-36.4,2.4"/>
			<path class="st0" d="M338.1,413.6c-18.2,0-18.2,0.8-36.4,0.8"/>
			<path class="st0" d="M338.1,413.6c-18.2,0-18.2-0.8-36.4-0.8"/>
			<path class="st0" d="M338.1,413.6c-18.2,0-18.2-2.4-36.4-2.4"/>
			<path class="st0" d="M338.1,404.9c-18.2,0-18.2,3.2-36.4,3.2"/>
			<path class="st0" d="M338.1,404.9c-18.2,0-18.2,1.6-36.4,1.6"/>
			<path class="st0" d="M338.1,404.9c-18.2,0-18.2,0-36.4,0"/>
			<path class="st0" d="M338.1,404.9c-18.2,0-18.2-1.6-36.4-1.6"/>
			<path class="st0" d="M338.1,404.9c-18.2,0-18.2-3.2-36.4-3.2"/>
			<path class="st0" d="M338.1,398.5c-18.2,0-18.2,0-36.4,0"/>
			<path class="st0" d="M338.1,389.1c-18.2,0-18.2,6.3-36.4,6.3"/>
			<path class="st0" d="M338.1,389.1c-18.2,0-18.2,4.7-36.4,4.7"/>
			<path class="st0" d="M338.1,389.1c-18.2,0-18.2,3.2-36.4,3.2"/>
			<path class="st0" d="M338.1,389.1c-18.2,0-18.2,1.6-36.4,1.6"/>
			<path class="st0" d="M338.1,389.1c-18.2,0-18.2,0-36.4,0"/>
			<path class="st0" d="M338.1,389.1c-18.2,0-18.2-1.6-36.4-1.6"/>
			<path class="st0" d="M338.1,389.1c-18.2,0-18.2-3.2-36.4-3.2"/>
			<path class="st0" d="M338.1,389.1c-18.2,0-18.2-4.7-36.4-4.7"/>
			<path class="st0" d="M338.1,389.1c-18.2,0-18.2-6.3-36.4-6.3"/>
			<path class="st0" d="M338.1,371.7c-18.2,0-18.2,3.2-36.4,3.2"/>
			<path class="st0" d="M338.1,371.7c-18.2,0-18.2,1.6-36.4,1.6"/>
			<path class="st0" d="M338.1,371.7c-18.2,0-18.2,0-36.4,0"/>
			<path class="st0" d="M338.1,371.7c-18.2,0-18.2-1.6-36.4-1.6"/>
			<path class="st0" d="M338.1,371.7c-18.2,0-18.2-3.2-36.4-3.2"/>
			<path class="st0" d="M338.1,305.2c-18.2,0-18.2,24.5-36.4,24.5"/>
			<path class="st0" d="M338.1,305.2c-18.2,0-18.2,22.9-36.4,22.9"/>
			<path class="st0" d="M338.1,305.2c-18.2,0-18.2,21.4-36.4,21.4"/>
			<path class="st0" d="M338.1,305.2c-18.2,0-18.2,19.8-36.4,19.8"/>
			<path class="st0" d="M338.1,305.2c-18.2,0-18.2,18.2-36.4,18.2"/>
			<path class="st0" d="M338.1,305.2c-18.2,0-18.2,16.6-36.4,16.6"/>
			<path class="st0" d="M338.1,305.2c-18.2,0-18.2,15-36.4,15"/>
			<path class="st0" d="M338.1,305.2c-18.2,0-18.2,13.4-36.4,13.4"/>
			<path class="st0" d="M338.1,305.2c-18.2,0-18.2,11.9-36.4,11.9"/>
			<path class="st0" d="M338.1,305.2c-18.2,0-18.2,10.3-36.4,10.3"/>
			<path class="st0" d="M338.1,305.2c-18.2,0-18.2,8.7-36.4,8.7"/>
			<path class="st0" d="M338.1,305.2c-18.2,0-18.2,7.1-36.4,7.1"/>
			<path class="st0" d="M338.1,305.2c-18.2,0-18.2,5.5-36.4,5.5"/>
			<path class="st0" d="M338.1,305.2c-18.2,0-18.2,4-36.4,4"/>
			<path class="st0" d="M338.1,305.2c-18.2,0-18.2,2.4-36.4,2.4"/>
			<path class="st0" d="M338.1,305.2c-18.2,0-18.2,0.8-36.4,0.8"/>
			<path class="st0" d="M338.1,305.2c-18.2,0-18.2-0.8-36.4-0.8"/>
			<path class="st0" d="M338.1,305.2c-18.2,0-18.2-2.4-36.4-2.4"/>
			<path class="st0" d="M338.1,305.2c-18.2,0-18.2-4-36.4-4"/>
			<path class="st0" d="M338.1,305.2c-18.2,0-18.2-5.5-36.4-5.5"/>
			<path class="st0" d="M338.1,305.2c-18.2,0-18.2-7.1-36.4-7.1"/>
			<path class="st0" d="M338.1,305.2c-18.2,0-18.2-8.7-36.4-8.7"/>
			<path class="st0" d="M338.1,305.2c-18.2,0-18.2-10.3-36.4-10.3"/>
			<path class="st0" d="M338.1,305.2c-18.2,0-18.2-11.9-36.4-11.9"/>
			<path class="st0" d="M338.1,305.2c-18.2,0-18.2-13.4-36.4-13.4"/>
			<path class="st0" d="M338.1,305.2c-18.2,0-18.2-15-36.4-15"/>
			<path class="st0" d="M338.1,305.2c-18.2,0-18.2-16.6-36.4-16.6"/>
			<path class="st0" d="M338.1,305.2c-18.2,0-18.2-18.2-36.4-18.2"/>
			<path class="st0" d="M338.1,305.2c-18.2,0-18.2-19.8-36.4-19.8"/>
			<path class="st0" d="M338.1,305.2c-18.2,0-18.2-21.4-36.4-21.4"/>
			<path class="st0" d="M338.1,305.2c-18.2,0-18.2-22.9-36.4-22.9"/>
			<path class="st0" d="M338.1,305.2c-18.2,0-18.2-24.5-36.4-24.5"/>
			<path class="st0" d="M338.1,259.3c-18.2,0-18.2,0.8-36.4,0.8"/>
			<path class="st0" d="M338.1,259.3c-18.2,0-18.2-0.8-36.4-0.8"/>
			<path class="st0" d="M338.1,253c-18.2,0-18.2,1.6-36.4,1.6"/>
			<path class="st0" d="M338.1,253c-18.2,0-18.2,0-36.4,0"/>
			<path class="st0" d="M338.1,253c-18.2,0-18.2-1.6-36.4-1.6"/>
			<path class="st0" d="M338.1,245.9c-18.2,0-18.2,2.4-36.4,2.4"/>
			<path class="st0" d="M338.1,245.9c-18.2,0-18.2,0.8-36.4,0.8"/>
			<path class="st0" d="M338.1,245.9c-18.2,0-18.2-0.8-36.4-0.8"/>
			<path class="st0" d="M338.1,245.9c-18.2,0-18.2-2.4-36.4-2.4"/>
			<path class="st0" d="M338.1,234.8c-18.2,0-18.2,3.2-36.4,3.2"/>
			<path class="st0" d="M338.1,234.8c-18.2,0-18.2,1.6-36.4,1.6"/>
			<path class="st0" d="M338.1,234.8c-18.2,0-18.2,0-36.4,0"/>
			<path class="st0" d="M338.1,234.8c-18.2,0-18.2-1.6-36.4-1.6"/>
			<path class="st0" d="M338.1,234.8c-18.2,0-18.2-3.2-36.4-3.2"/>
			<path class="st0" d="M338.1,220.6c-18.2,0-18.2,7.9-36.4,7.9"/>
			<path class="st0" d="M338.1,220.6c-18.2,0-18.2,6.3-36.4,6.3"/>
			<path class="st0" d="M338.1,220.6c-18.2,0-18.2,4.7-36.4,4.7"/>
			<path class="st0" d="M338.1,220.6c-18.2,0-18.2,3.2-36.4,3.2"/>
			<path class="st0" d="M338.1,220.6c-18.2,0-18.2,1.6-36.4,1.6"/>
			<path class="st0" d="M338.1,220.6c-18.2,0-18.2,0-36.4,0"/>
			<path class="st0" d="M338.1,220.6c-18.2,0-18.2-1.6-36.4-1.6"/>
			<path class="st0" d="M338.1,220.6c-18.2,0-18.2-3.2-36.4-3.2"/>
			<path class="st0" d="M338.1,220.6c-18.2,0-18.2-4.7-36.4-4.7"/>
			<path class="st0" d="M338.1,220.6c-18.2,0-18.2-6.3-36.4-6.3"/>
			<path class="st0" d="M338.1,220.6c-18.2,0-18.2-7.9-36.4-7.9"/>
			<path class="st0" d="M338.1,203.2c-18.2,0-18.2,6.3-36.4,6.3"/>
			<path class="st0" d="M338.1,203.2c-18.2,0-18.2,4.7-36.4,4.7"/>
			<path class="st0" d="M338.1,203.2c-18.2,0-18.2,3.2-36.4,3.2"/>
			<path class="st0" d="M338.1,203.2c-18.2,0-18.2,1.6-36.4,1.6"/>
			<path class="st0" d="M338.1,203.2c-18.2,0-18.2,0-36.4,0"/>
			<path class="st0" d="M338.1,203.2c-18.2,0-18.2-1.6-36.4-1.6"/>
			<path class="st0" d="M338.1,203.2c-18.2,0-18.2-3.2-36.4-3.2"/>
			<path class="st0" d="M338.1,203.2c-18.2,0-18.2-4.7-36.4-4.7"/>
			<path class="st0" d="M338.1,203.2c-18.2,0-18.2-6.3-36.4-6.3"/>
			<path class="st0" d="M338.1,191.3c-18.2,0-18.2,2.4-36.4,2.4"/>
			<path class="st0" d="M338.1,191.3c-18.2,0-18.2,0.8-36.4,0.8"/>
			<path class="st0" d="M338.1,191.3c-18.2,0-18.2-0.8-36.4-0.8"/>
			<path class="st0" d="M338.1,191.3c-18.2,0-18.2-2.4-36.4-2.4"/>
			<path class="st0" d="M338.1,184.2c-18.2,0-18.2,1.6-36.4,1.6"/>
			<path class="st0" d="M338.1,184.2c-18.2,0-18.2,0-36.4,0"/>
			<path class="st0" d="M338.1,184.2c-18.2,0-18.2-1.6-36.4-1.6"/>
			<path class="st0" d="M338.1,156.5c-18.2,0-18.2,22.9-36.4,22.9"/>
			<path class="st0" d="M338.1,156.5c-18.2,0-18.2,15-36.4,15"/>
			<path class="st0" d="M338.1,156.5c-18.2,0-18.2,7.1-36.4,7.1"/>
			<path class="st0" d="M338.1,156.5c-18.2,0-18.2,4-36.4,4"/>
			<path class="st0" d="M338.1,156.5c-18.2,0-18.2,0.8-36.4,0.8"/>
			<path class="st0" d="M338.1,156.5c-18.2,0-18.2-15-36.4-15"/>
			<path class="st0" d="M338.1,156.5c-18.2,0-18.2-16.6-36.4-16.6"/>
			<path class="st0" d="M338.1,156.5c-18.2,0-18.2-18.2-36.4-18.2"/>
			<path class="st0" d="M338.1,156.5c-18.2,0-18.2-19.8-36.4-19.8"/>
			<path class="st0" d="M338.1,156.5c-18.2,0-18.2-21.4-36.4-21.4"/>
			<path class="st0" d="M338.1,156.5c-18.2,0-18.2-22.9-36.4-22.9"/>
			<path class="st0" d="M301.7,201.6c-18.2,0-18.2,2.4-36.4,2.4"/>
			<path class="st0" d="M301.7,201.6c-18.2,0-18.2,0.8-36.4,0.8"/>
			<path class="st0" d="M301.7,201.6c-18.2,0-18.2-0.8-36.4-0.8"/>
			<path class="st0" d="M301.7,201.6c-18.2,0-18.2-2.4-36.4-2.4"/>
			<path class="st0" d="M301.7,179.5c-18.2,0-18.2,1.6-36.4,1.6"/>
			<path class="st0" d="M301.7,179.5c-18.2,0-18.2,0-36.4,0"/>
			<path class="st0" d="M301.7,179.5c-18.2,0-18.2-1.6-36.4-1.6"/>
			<path class="st0" d="M301.7,171.5c-18.2,0-18.2,3.2-36.4,3.2"/>
			<path class="st0" d="M301.7,171.5c-18.2,0-18.2,1.6-36.4,1.6"/>
			<path class="st0" d="M301.7,171.5c-18.2,0-18.2,0-36.4,0"/>
			<path class="st0" d="M301.7,171.5c-18.2,0-18.2-1.6-36.4-1.6"/>
			<path class="st0" d="M301.7,171.5c-18.2,0-18.2-3.2-36.4-3.2"/>
			<path class="st0" d="M301.7,163.6c-18.2,0-18.2,1.6-36.4,1.6"/>
			<path class="st0" d="M301.7,163.6c-18.2,0-18.2,0-36.4,0"/>
			<path class="st0" d="M301.7,163.6c-18.2,0-18.2-1.6-36.4-1.6"/>
			<path class="st0" d="M301.7,157.3c-18.2,0-18.2,1.6-36.4,1.6"/>
			<path class="st0" d="M301.7,157.3c-18.2,0-18.2,0-36.4,0"/>
			<path class="st0" d="M301.7,157.3c-18.2,0-18.2-1.6-36.4-1.6"/>
			<path class="st0" d="M301.7,141.5c-18.2,0-18.2,11.1-36.4,11.1"/>
			<path class="st0" d="M301.7,141.5c-18.2,0-18.2,9.5-36.4,9.5"/>
			<path class="st0" d="M301.7,141.5c-18.2,0-18.2,7.9-36.4,7.9"/>
			<path class="st0" d="M301.7,141.5c-18.2,0-18.2,6.3-36.4,6.3"/>
			<path class="st0" d="M301.7,141.5c-18.2,0-18.2,4.7-36.4,4.7"/>
			<path class="st0" d="M301.7,141.5c-18.2,0-18.2,3.2-36.4,3.2"/>
			<path class="st0" d="M301.7,141.5c-18.2,0-18.2,1.6-36.4,1.6"/>
			<path class="st0" d="M301.7,141.5c-18.2,0-18.2,0-36.4,0"/>
			<path class="st0" d="M301.7,141.5c-18.2,0-18.2-1.6-36.4-1.6"/>
			<path class="st0" d="M301.7,141.5c-18.2,0-18.2-3.2-36.4-3.2"/>
			<path class="st0" d="M301.7,141.5c-18.2,0-18.2-4.7-36.4-4.7"/>
			<path class="st0" d="M301.7,141.5c-18.2,0-18.2-6.3-36.4-6.3"/>
			<path class="st0" d="M301.7,141.5c-18.2,0-18.2-7.9-36.4-7.9"/>
			<path class="st0" d="M301.7,141.5c-18.2,0-18.2-9.5-36.4-9.5"/>
			<path class="st0" d="M301.7,141.5c-18.2,0-18.2-11.1-36.4-11.1"/>
		</g>
	</g>
	<rect class="st1" width="566.9" height="566.9"/>
</g>
</svg>
