<?xml version="1.0" encoding="UTF-8" standalone="no"?>
<svg
   xmlns:dc="http://purl.org/dc/elements/1.1/"
   xmlns:cc="http://creativecommons.org/ns#"
   xmlns:rdf="http://www.w3.org/1999/02/22-rdf-syntax-ns#"
   xmlns:svg="http://www.w3.org/2000/svg"
   xmlns="http://www.w3.org/2000/svg"
   xmlns:sodipodi="http://sodipodi.sourceforge.net/DTD/sodipodi-0.dtd"
   xmlns:inkscape="http://www.inkscape.org/namespaces/inkscape"
   inkscape:version="1.0 (4035a4f, 2020-05-01)"
   sodipodi:docname="poc-tidytree--radial.svg"
   xml:space="preserve"
   style="enable-background:new 0 0 595.3 841.9;"
   viewBox="0 0 595.3 841.9"
   y="0px"
   x="0px"
   id="Layer_1"
   version="1.1"><metadata
   id="metadata1854"><rdf:RDF><cc:Work
       rdf:about=""><dc:format>image/svg+xml</dc:format><dc:type
         rdf:resource="http://purl.org/dc/dcmitype/StillImage" /><dc:title /></cc:Work></rdf:RDF></metadata><defs
   id="defs1852" /><sodipodi:namedview
   inkscape:current-layer="Layer_1"
   inkscape:window-maximized="1"
   inkscape:window-y="25"
   inkscape:window-x="0"
   inkscape:cy="285.39508"
   inkscape:cx="294.38035"
   inkscape:zoom="1.8005525"
   showgrid="false"
   id="namedview1850"
   inkscape:window-height="1387"
   inkscape:window-width="2560"
   inkscape:pageshadow="2"
   inkscape:pageopacity="0"
   guidetolerance="10"
   gridtolerance="10"
   objecttolerance="10"
   borderopacity="1"
   bordercolor="#666666"
   pagecolor="#ffffff"
   inkscape:document-rotation="0"
   showguides="true"
   inkscape:guide-bbox="true"><sodipodi:guide
     position="319.90181,558.65362"
     orientation="0,-1"
     id="guide17373" /><sodipodi:guide
     position="282.69101,587.53364"
     orientation="1,0"
     id="guide17375" /></sodipodi:namedview>
<style
   id="style833"
   type="text/css">
	.st0{fill:none;stroke:#565656;stroke-width:1.5;stroke-opacity:0.4;}
	.st1{fill:none;stroke:#565656;stroke-width:1.5;}
</style>
<g
   transform="matrix(1.329883,0,0,1.3301175,0.24747835,0.24752198)"
   id="g1847">
	
	<rect
   y="0"
   x="0"
   id="rect1845"
   height="566.90002"
   width="566.90002"
   class="st1" />
</g>
<g
   transform="matrix(0.60939124,0,0,0.60949871,374.72398,378.98489)"
   fill="none"
   stroke="#555555"
   stroke-opacity="0.4"
   stroke-width="1.5"
   id="g2376"><path
     d="M 0,0 C 27.095842,53.112673 11.497718,-58.505924 22.995437,-117.01185"
     id="path1874" /><path
     d="M 0,0 C 27.095842,53.112673 34.755564,-48.447821 69.511128,-96.895643"
     id="path1876" /><path
     d="M 0,0 C 27.095842,53.112673 51.536733,-29.985093 103.07347,-59.970186"
     id="path1878" /><path
     d="M 0,0 C 27.095842,53.112673 57.528285,-15.672811 115.05657,-31.345622"
     id="path1880" /><path
     d="M 0,0 C 27.095842,53.112673 59.156338,-7.4611191 118.31268,-14.922238"
     id="path1882" /><path
     d="M 0,0 C 27.095842,53.112673 59.354151,5.676743 118.7083,11.353486"
     id="path1884" /><path
     d="M 0,0 C 27.095842,53.112673 38.070925,45.888401 76.141849,91.776801"
     id="path1886" /><path
     d="M 0,0 C 27.095842,53.112673 -7.7579011,59.118149 -15.515802,118.2363"
     id="path1888" /><path
     d="M 0,0 C 27.095842,53.112673 -43.582014,40.690892 -87.164028,81.381784"
     id="path1890" /><path
     d="M 0,0 C 27.095842,53.112673 -54.115628,-25.032766 -108.23126,-50.065532"
     id="path1892" /><path
     d="m 22.995437,-117.01185 c 11.497718,-58.50592 -11.0352,-61.46285 -7.048454,-120.95442"
     id="path1894" /><path
     d="m 22.995437,-117.01185 c 11.497718,-58.50592 15.013889,-57.77819 27.683664,-116.04153"
     id="path1896" /><path
     d="m 22.995437,-117.01185 c 11.497718,-58.50592 33.473856,-52.71583 52.296954,-109.29172"
     id="path1898" /><path
     d="M 69.511128,-96.895643 C 104.26669,-145.34346 69.901212,-164.65141 93.201616,-219.53521"
     id="path1900" /><path
     d="M 69.511128,-96.895643 C 104.26669,-145.34346 76.453557,-161.71308 101.93808,-215.61744"
     id="path1902" /><path
     d="M 69.511128,-96.895643 C 104.26669,-145.34346 82.882685,-158.51412 110.51025,-211.35216"
     id="path1904" /><path
     d="M 69.511128,-96.895643 C 104.26669,-145.34346 89.178235,-155.05969 118.90431,-206.74626"
     id="path1906" /><path
     d="M 69.511128,-96.895643 C 104.26669,-145.34346 95.33006,-151.35536 127.10675,-201.80715"
     id="path1908" /><path
     d="M 69.511128,-96.895643 C 104.26669,-145.34346 101.32825,-147.4071 135.10433,-196.5428"
     id="path1910" /><path
     d="M 69.511128,-96.895643 C 104.26669,-145.34346 107.16312,-143.22126 142.88417,-190.96168"
     id="path1912" /><path
     d="M 69.511128,-96.895643 C 104.26669,-145.34346 112.82529,-138.80461 150.43372,-185.07281"
     id="path1914" /><path
     d="M 69.511128,-96.895643 C 104.26669,-145.34346 118.30563,-134.16424 157.74084,-178.88566"
     id="path1916" /><path
     d="M 69.511128,-96.895643 C 104.26669,-145.34346 123.59529,-129.30765 164.79372,-172.41021"
     id="path1918" /><path
     d="M 69.511128,-96.895643 C 104.26669,-145.34346 128.68576,-124.24267 171.58102,-165.65689"
     id="path1920" /><path
     d="M 69.511128,-96.895643 C 104.26669,-145.34346 133.56884,-118.97744 178.09178,-158.63659"
     id="path1922" /><path
     d="m 103.07347,-59.970186 c 51.53673,-29.985093 39.60819,-47.910344 87.16875,-83.870524"
     id="path1924" /><path
     d="m 103.07347,-59.970186 c 51.53673,-29.985093 43.82326,-42.096544 92.78883,-76.118794"
     id="path1926" /><path
     d="m 103.07347,-59.970186 c 51.53673,-29.985093 47.80157,-36.11825 98.09325,-68.147724"
     id="path1928" /><path
     d="M 103.07347,-59.970186 C 154.6102,-89.955279 154.6102,-89.955279 206.14693,-119.94037"
     id="path1930" /><path
     d="M 103.07347,-59.970186 C 154.6102,-89.955279 158.09618,-83.677144 210.7949,-111.56953"
     id="path1932" /><path
     d="m 103.07347,-59.970186 c 51.53673,-29.985093 58.25389,-17.293965 112.02967,-43.048684"
     id="path1934" /><path
     d="m 103.07347,-59.970186 c 51.53673,-29.985093 61.22507,-10.756448 115.99124,-34.331993"
     id="path1936" /><path
     d="m 115.05657,-31.345622 c 57.52829,-15.672811 54.38558,-25.974738 110.8663,-45.081524"
     id="path1938" /><path
     d="m 115.05657,-31.345622 c 57.52829,-15.672811 56.54973,-19.127586 113.75182,-35.951989"
     id="path1940" /><path
     d="m 115.05657,-31.345622 c 57.52829,-15.672811 58.4373,-12.199089 116.26859,-26.713993"
     id="path1942" /><path
     d="m 115.05657,-31.345622 c 57.52829,-15.672811 60.04527,-5.200413 118.41254,-17.382424"
     id="path1944" /><path
     d="m 118.31268,-14.922238 c 59.15633,-7.461119 59.15633,-7.461119 118.31267,-14.922238"
     id="path1946" /><path
     d="m 118.7083,11.353486 c 59.35415,5.676743 59.98428,-19.429927 119.54847,-22.122074"
     id="path1948" /><path
     d="M 118.7083,11.353486 C 178.06245,17.030229 178.87275,-0.89768375 238.497,-1.1969117"
     id="path1950" /><path
     d="m 118.7083,11.353486 c 59.35415,5.676743 60.05634,-5.0709658 119.64455,-2.9767924"
     id="path1952" /><path
     d="m 118.7083,11.353486 c 59.35415,5.676743 59.66012,2.099113 119.11626,6.583313"
     id="path1954" /><path
     d="m 118.7083,11.353486 c 59.35415,5.676743 58.97643,9.247511 118.20468,16.11451"
     id="path1956" /><path
     d="m 118.7083,11.353486 c 59.35415,5.676743 58.00638,16.362707 116.91127,25.601438"
     id="path1958" /><path
     d="m 118.7083,11.353486 c 59.35415,5.676743 56.75152,23.433234 115.23813,35.028807"
     id="path1960" /><path
     d="m 118.7083,11.353486 c 59.35415,5.676743 55.21389,30.447696 113.18795,44.381424"
     id="path1962" /><path
     d="M 76.141849,91.776801 C 114.21277,137.6652 170.00893,55.616804 226.67858,74.155739"
     id="path1964" /><path
     d="M 76.141849,91.776801 C 114.21277,137.6652 167.63962,62.395697 223.5195,83.194262"
     id="path1966" /><path
     d="M 76.141849,91.776801 C 114.21277,137.6652 165.00013,69.074029 220.00018,92.098705"
     id="path1968" /><path
     d="M 76.141849,91.776801 C 114.21277,137.6652 162.09472,75.641038 216.1263,100.85472"
     id="path1970" /><path
     d="M 76.141849,91.776801 C 114.21277,137.6652 158.92807,82.086139 211.90409,109.44819"
     id="path1972" /><path
     d="M 76.141849,91.776801 C 114.21277,137.6652 155.50528,88.398945 207.34037,117.86526"
     id="path1974" /><path
     d="M 76.141849,91.776801 C 114.21277,137.6652 151.83187,94.569283 202.44249,126.09238"
     id="path1976" /><path
     d="M 76.141849,91.776801 C 114.21277,137.6652 147.91376,100.58721 197.21834,134.11628"
     id="path1978" /><path
     d="M 76.141849,91.776801 C 114.21277,137.6652 143.75726,106.44302 191.67634,141.92403"
     id="path1980" /><path
     d="M 76.141849,91.776801 C 114.21277,137.6652 139.36907,112.12728 185.82543,149.50304"
     id="path1982" /><path
     d="M 76.141849,91.776801 C 114.21277,137.6652 134.75627,117.63083 179.67503,156.84111"
     id="path1984" /><path
     d="M 76.141849,91.776801 C 114.21277,137.6652 129.92629,122.94481 173.23505,163.92641"
     id="path1986" /><path
     d="M 76.141849,91.776801 C 114.21277,137.6652 124.88691,128.06063 166.51588,170.74751"
     id="path1988" /><path
     d="M 76.141849,91.776801 C 114.21277,137.6652 119.64626,132.97007 159.52834,177.29342"
     id="path1990" /><path
     d="M 76.141849,91.776801 C 114.21277,137.6652 114.21277,137.6652 152.2837,183.5536"
     id="path1992" /><path
     d="M 76.141849,91.776801 C 114.21277,137.6652 108.59522,142.13847 144.79363,189.51796"
     id="path1994" /><path
     d="M 76.141849,91.776801 C 114.21277,137.6652 102.80265,146.38265 137.0702,195.17687"
     id="path1996" /><path
     d="M 76.141849,91.776801 C 114.21277,137.6652 96.844392,150.39092 129.12586,200.52123"
     id="path1998" /><path
     d="M 76.141849,91.776801 C 114.21277,137.6652 90.730057,154.15681 120.97341,205.54241"
     id="path2000" /><path
     d="M 76.141849,91.776801 C 114.21277,137.6652 84.469496,157.67425 112.62599,210.23234"
     id="path2002" /><path
     d="M 76.141849,91.776801 C 114.21277,137.6652 78.072799,160.93758 104.09707,214.58344"
     id="path2004" /><path
     d="M 76.141849,91.776801 C 114.21277,137.6652 71.550275,163.94153 95.400367,218.5887"
     id="path2006" /><path
     d="M 76.141849,91.776801 C 114.21277,137.6652 64.912438,166.68126 86.549917,222.24167"
     id="path2008" /><path
     d="M 76.141849,91.776801 C 114.21277,137.6652 58.169983,169.15235 77.559977,225.53647"
     id="path2010" /><path
     d="M 76.141849,91.776801 C 114.21277,137.6652 51.333778,171.35084 68.445038,228.46778"
     id="path2012" /><path
     d="M 76.141849,91.776801 C 114.21277,137.6652 44.414841,173.27316 59.219788,231.03088"
     id="path2014" /><path
     d="M 76.141849,91.776801 C 114.21277,137.6652 37.424323,174.91622 49.899097,233.22163"
     id="path2016" /><path
     d="M 76.141849,91.776801 C 114.21277,137.6652 30.373489,176.27739 40.497985,235.03651"
     id="path2018" /><path
     d="M 76.141849,91.776801 C 114.21277,137.6652 23.273703,177.35445 31.031604,236.4726"
     id="path2020" /><path
     d="m -15.515802,118.2363 c -7.757901,59.11815 24.4889095,60.41349 27.479945,119.96343"
     id="path2022" /><path
     d="m -15.515802,118.2363 c -7.757901,59.11815 17.3111469,60.62969 17.9095952,120.25169"
     id="path2024" /><path
     d="m -15.515802,118.2363 c -7.757901,59.11815 10.1304908,60.55762 8.335387,120.15559"
     id="path2026" /><path
     d="m -15.515802,118.2363 c -7.757901,59.11815 2.958514,60.19739 -1.227249,119.67528"
     id="path2028" /><path
     d="m -15.515802,118.2363 c -7.757901,59.11815 -4.193225,59.54958 -10.7629,118.81154"
     id="path2030" /><path
     d="m -15.515802,118.2363 c -7.757901,59.11815 -11.313199,58.61525 -20.2562,117.56577"
     id="path2032" /><path
     d="m -15.515802,118.2363 c -7.757901,59.11815 -18.389935,57.39589 -29.691847,115.93996"
     id="path2034" /><path
     d="m -15.515802,118.2363 c -7.757901,59.11815 -25.412026,55.89347 -39.054635,113.93673"
     id="path2036" /><path
     d="m -15.515802,118.2363 c -7.757901,59.11815 -32.368155,54.11042 -48.329474,111.55933"
     id="path2038" /><path
     d="m -15.515802,118.2363 c -7.757901,59.11815 -39.247112,52.0496 -57.501417,108.81157"
     id="path2040" /><path
     d="M -87.164028,81.381784 C -130.74604,122.07268 -68.245106,165.3447 -90.993475,220.45961"
     id="path2042" /><path
     d="M -87.164028,81.381784 C -130.74604,122.07268 -74.826613,162.47229 -99.768817,216.62971"
     id="path2044" /><path
     d="m -87.164028,81.381784 c -43.582012,40.690896 5.876503,77.956236 -21.219342,131.068906"
     id="path2046" /><path
     d="M -87.164028,81.381784 C -130.74604,122.07268 -87.617429,155.94695 -116.82324,207.92927"
     id="path2048" /><path
     d="M -87.164028,81.381784 C -130.74604,122.07268 -93.806124,152.30455 -125.07483,203.07274"
     id="path2050" /><path
     d="M -87.164028,81.381784 C -130.74604,122.07268 -99.843636,148.41669 -133.12485,197.88892"
     id="path2052" /><path
     d="M -87.164028,81.381784 C -130.74604,122.07268 -105.72023,144.28963 -140.96031,192.38618"
     id="path2054" /><path
     d="M -87.164028,81.381784 C -130.74604,122.07268 -111.42645,139.93003 -148.5686,186.57337"
     id="path2056" /><path
     d="M -87.164028,81.381784 C -130.74604,122.07268 -116.95308,135.3449 -155.93744,180.45987"
     id="path2058" /><path
     d="M -87.164028,81.381784 C -130.74604,122.07268 -122.29122,130.54165 -163.05496,174.05553"
     id="path2060" /><path
     d="M -87.164028,81.381784 C -130.74604,122.07268 -127.43227,125.52801 -169.9097,167.37068"
     id="path2062" /><path
     d="M -87.164028,81.381784 C -130.74604,122.07268 -132.36795,120.31206 -176.4906,160.41608"
     id="path2064" /><path
     d="M -87.164028,81.381784 C -130.74604,122.07268 -137.09029,114.90221 -182.78706,153.20294"
     id="path2066" /><path
     d="M -87.164028,81.381784 C -130.74604,122.07268 -141.59169,109.30717 -188.78892,145.7429"
     id="path2068" /><path
     d="M -87.164028,81.381784 C -130.74604,122.07268 -145.8649,103.53597 -194.48653,138.04796"
     id="path2070" /><path
     d="M -87.164028,81.381784 C -130.74604,122.07268 -149.90301,97.597909 -199.87069,130.13055"
     id="path2072" /><path
     d="M -87.164028,81.381784 C -130.74604,122.07268 -153.69954,91.50255 -204.93272,122.0034"
     id="path2074" /><path
     d="M -87.164028,81.381784 C -130.74604,122.07268 -161.58496,76.72397 -215.44661,102.29863"
     id="path2076" /><path
     d="M -87.164028,81.381784 C -130.74604,122.07268 -169.63298,56.753141 -226.1773,75.670855"
     id="path2078" /><path
     d="m -108.23126,-50.065532 c -54.11563,-25.032766 -66.49495,88.3672 -124.73702,101.134423"
     id="path2080" /><path
     d="m -108.23126,-50.065532 c -54.11563,-25.032766 -67.89148,81.323286 -126.59906,91.742537"
     id="path2082" /><path
     d="m -108.23126,-50.065532 c -54.11563,-25.032766 -70.2632,38.403871 -129.76135,34.516651"
     id="path2084" /><path
     d="M -108.23126,-50.065532 C -162.34689,-75.098298 -167.42993,-62.956215 -223.2399,-83.94162"
     id="path2086" /><path
     d="m -108.23126,-50.065532 c -54.11563,-25.032766 -43.28336,-45.011201 -93.78823,-76.703448"
     id="path2088" /><path
     d="m -108.23126,-50.065532 c -54.11563,-25.032766 -30.76189,-62.527408 -77.09294,-100.058388"
     id="path2090" /><path
     d="M -108.23126,-50.065532 C -162.34689,-75.098298 -83.941497,-157.95598 -111.922,-210.60797"
     id="path2092" /><path
     d="m 15.946983,-237.96627 c 3.986745,-59.49156 -7.9684911,-60.05195 -6.3727927,-119.65559"
     id="path2094" /><path
     d="m 15.946983,-237.96627 c 3.986745,-59.49156 0.0043,-59.73169 3.194539,-119.27128"
     id="path2096" /><path
     d="m 15.946983,-237.96627 c 3.986745,-59.49156 7.965635,-59.19817 12.748159,-118.63105"
     id="path2098" /><path
     d="m 15.946983,-237.96627 c 3.986745,-59.49156 15.909856,-58.45178 22.281223,-117.73538"
     id="path2100" /><path
     d="m 50.679101,-233.05338 c 12.669775,-58.26335 -3.007958,-61.23556 6.526271,-120.09334"
     id="path2102" /><path
     d="m 50.679101,-233.05338 c 12.669775,-58.26335 4.850798,-59.85436 15.956778,-118.43591"
     id="path2104" /><path
     d="m 50.679101,-233.05338 c 12.669775,-58.26335 12.669775,-58.26335 25.33955,-116.52669"
     id="path2106" /><path
     d="m 50.679101,-233.05338 c 12.669775,-58.26335 20.443372,-56.46365 34.667867,-114.36705"
     id="path2108" /><path
     d="m 50.679101,-233.05338 c 12.669775,-58.26335 28.166022,-54.45655 43.935046,-111.95854"
     id="path2110" /><path
     d="m 75.292391,-226.30357 c 18.823097,-56.57589 18.823097,-56.57589 37.646199,-113.15179"
     id="path2112" /><path
     d="m 178.09178,-158.63659 c 44.52295,-39.65914 22.05899,-62.31179 62.08914,-106.50146"
     id="path2114" /><path
     d="m 178.09178,-158.63659 c 44.52295,-39.65914 27.90037,-56.87617 69.0988,-99.97872"
     id="path2116" /><path
     d="m 178.09178,-158.63659 c 44.52295,-39.65914 33.5942,-51.28617 75.93139,-93.27072"
     id="path2118" /><path
     d="m 178.09178,-158.63659 c 44.52295,-39.65914 39.13638,-45.54579 82.58201,-86.38226"
     id="path2120" /><path
     d="m 178.09178,-158.63659 c 44.52295,-39.65914 44.52295,-39.65914 89.0459,-79.31829"
     id="path2122" /><path
     d="m 178.09178,-158.63659 c 44.52295,-39.65914 49.75005,-33.63045 95.31842,-72.08386"
     id="path2124" /><path
     d="m 178.09178,-158.63659 c 44.52295,-39.65914 54.81394,-27.46403 101.39509,-64.68415"
     id="path2126" /><path
     d="m 178.09178,-158.63659 c 44.52295,-39.65914 59.71099,-21.16429 107.27154,-57.12447"
     id="path2128" /><path
     d="m 178.09178,-158.63659 c 44.52295,-39.65914 64.43769,-14.73576 112.94358,-49.41023"
     id="path2130" /><path
     d="m 219.06471,-94.302179 c 54.76618,-23.575541 48.06685,-38.058101 101.49317,-64.530151"
     id="path2132" /><path
     d="m 219.06471,-94.302179 c 54.76618,-23.575541 51.51343,-30.861651 105.62906,-55.894421"
     id="path2134" /><path
     d="m 219.06471,-94.302179 c 54.76618,-23.575541 54.76618,-23.575541 109.53236,-47.151091"
     id="path2136" /><path
     d="m 219.06471,-94.302179 c 54.76618,-23.575541 57.82278,-16.205001 113.20027,-38.306431"
     id="path2138" /><path
     d="m 219.06471,-94.302179 c 54.76618,-23.575541 60.68102,-8.755291 116.63017,-29.366781"
     id="path2140" /><path
     d="m 31.031604,236.4726 c 7.757901,59.11815 123.609906,18.40878 154.538206,69.38506"
     id="path2142" /><path
     d="m 31.031604,236.4726 c 7.757901,59.11815 116.733326,22.45604 146.286306,74.24177"
     id="path2144" /><path
     d="m 31.031604,236.4726 c 7.757901,59.11815 109.750886,26.31782 137.907386,78.87591"
     id="path2146" /><path
     d="m 31.031604,236.4726 c 7.757901,59.11815 102.667606,29.99135 129.407446,83.28414"
     id="path2148" /><path
     d="m 31.031604,236.4726 c 7.757901,59.11815 95.488546,33.474 120.792576,87.46332"
     id="path2150" /><path
     d="m 31.031604,236.4726 c 7.757901,59.11815 88.218856,36.76328 112.068946,91.41045"
     id="path2152" /><path
     d="m 31.031604,236.4726 c 7.757901,59.11815 80.863736,39.85682 103.242806,95.1227"
     id="path2154" /><path
     d="m 31.031604,236.4726 c 7.757901,59.11815 73.428466,42.75241 94.320486,98.59742"
     id="path2156" /><path
     d="m 31.031604,236.4726 c 7.757901,59.11815 65.918368,45.44799 85.308366,101.83211"
     id="path2158" /><path
     d="m 31.031604,236.4726 c 7.757901,59.11815 58.338817,47.94161 76.212906,104.82445"
     id="path2160" /><path
     d="m 31.031604,236.4726 c 7.757901,59.11815 50.695247,50.23149 67.040617,107.57231"
     id="path2162" /><path
     d="m 31.031604,236.4726 c 7.757901,59.11815 42.993131,52.316 57.798078,110.07372"
     id="path2164" /><path
     d="m 31.031604,236.4726 c 7.757901,59.11815 35.237989,54.19363 48.491907,112.32687"
     id="path2166" /><path
     d="m 31.031604,236.4726 c 7.757901,59.11815 27.435374,55.86304 39.12877,114.33017"
     id="path2168" /><path
     d="m 31.031604,236.4726 c 7.757901,59.11815 19.590877,57.32304 29.715374,116.08217"
     id="path2170" /><path
     d="m 31.031604,236.4726 c 7.757901,59.11815 11.710117,58.57258 20.258461,117.58162"
     id="path2172" /><path
     d="m 31.031604,236.4726 c 7.757901,59.11815 3.798739,59.61077 10.764808,118.82745"
     id="path2174" /><path
     d="m 31.031604,236.4726 c 7.757901,59.11815 -4.13759,60.43686 1.241213,119.81875"
     id="path2176" /><path
     d="m 31.031604,236.4726 c 7.757901,59.11815 -12.093184,61.05026 -8.3055,120.55483"
     id="path2178" /><path
     d="M 31.031604,236.4726 C 38.789505,295.59075 10.96926,297.92313 13.163112,357.50776"
     id="path2180" /><path
     d="M 31.031604,236.4726 C 38.789505,295.59075 2.9922415,298.10998 3.5906898,357.73198"
     id="path2182" /><path
     d="m 31.031604,236.4726 c 7.757901,59.11815 -36.0185243,61.61069 -37.0159083,121.22734"
     id="path2184" /><path
     d="m 31.031604,236.4726 c 7.757901,59.11815 -43.994114,61.37046 -46.586616,120.93907"
     id="path2186" /><path
     d="m 31.031604,236.4726 c 7.757901,59.11815 -51.960417,60.91688 -56.14618,120.39477"
     id="path2188" /><path
     d="m 31.031604,236.4726 c 7.757901,59.11815 -59.911729,60.25026 -65.687754,119.59483"
     id="path2190" /><path
     d="m 31.031604,236.4726 c 7.757901,59.11815 -67.842352,59.37108 -75.204502,118.53982"
     id="path2192" /><path
     d="m 31.031604,236.4726 c 7.757901,59.11815 -75.746606,58.27998 -84.689607,117.2305"
     id="path2194" /><path
     d="m 31.031604,236.4726 c 7.757901,59.11815 -83.618829,56.97774 -94.136274,115.6678"
     id="path2196" /><path
     d="m 31.031604,236.4726 c 7.757901,59.11815 -91.453381,55.46528 -103.537737,113.85285"
     id="path2198" /><path
     d="m 31.031604,236.4726 c 7.757901,59.11815 -99.244651,53.74369 -112.88726,111.78695"
     id="path2200" /><path
     d="m 31.031604,236.4726 c 7.757901,59.11815 -106.987056,51.81421 -122.178146,109.47157"
     id="path2202" /><path
     d="m 31.031604,236.4726 c 7.757901,59.11815 -114.67505,49.67822 -131.403744,106.90838"
     id="path2204" /><path
     d="m -204.93272,122.0034 c -51.23318,30.50085 -49.16938,33.91529 -99.9898,65.09902"
     id="path2206" /><path
     d="m -204.93272,122.0034 c -51.23318,30.50085 -53.2511,27.0591 -104.88787,56.8716"
     id="path2208" /><path
     d="m -215.44661,102.29863 c -53.86165,25.57465 -50.34302,32.73614 -103.50094,59.7431"
     id="path2210" /><path
     d="m -215.44661,102.29863 c -53.86165,25.57465 -53.86165,25.57465 -107.7233,51.14931"
     id="path2212" /><path
     d="m -215.44661,102.29863 c -53.86165,25.57465 -57.18737,18.32156 -111.71416,42.4456"
     id="path2214" /><path
     d="m -226.1773,75.670855 c -56.54433,18.917713 -52.51997,30.189195 -108.25942,51.361205"
     id="path2216" /><path
     d="m -226.1773,75.670855 c -56.54433,18.917713 -55.2532,22.692714 -111.5393,42.365425"
     id="path2218" /><path
     d="m -226.1773,75.670855 c -56.54433,18.917713 -57.78482,15.125773 -114.57725,33.285095"
     id="path2220" /><path
     d="m -226.1773,75.670855 c -56.54433,18.917713 -60.11304,7.49379 -117.37111,24.126719"
     id="path2222" /><path
     d="m -234.83032,41.677005 c -58.70757,10.419251 -55.49967,26.050461 -113.56567,39.595954"
     id="path2224" /><path
     d="m -234.83032,41.677005 c -58.70757,10.419251 -57.20823,18.256323 -115.61593,30.242988"
     id="path2226" /><path
     d="m -234.83032,41.677005 c -58.70757,10.419251 -58.70757,10.419251 -117.41515,20.838503"
     id="path2228" /><path
     d="m -234.83032,41.677005 c -58.70757,10.419251 -59.99665,2.544861 -118.96204,11.389235"
     id="path2230" /><path
     d="m -234.83032,41.677005 c -58.70757,10.419251 -61.07453,-5.361207 -120.2555,1.901953"
     id="path2232" /><path
     d="m -237.99261,-15.548881 c -59.49815,-3.887221 -59.43146,35.980181 -118.91627,40.06644"
     id="path2234" /><path
     d="m -237.99261,-15.548881 c -59.49815,-3.887221 -59.87172,28.013129 -119.44458,30.505979"
     id="path2236" /><path
     d="m -237.99261,-15.548881 c -59.49815,-3.887221 -60.0986,20.037149 -119.71685,20.9348026"
     id="path2238" /><path
     d="m -237.99261,-15.548881 c -59.49815,-3.887221 -60.11195,12.0579538 -119.73286,11.3597683"
     id="path2240" /><path
     d="m -237.99261,-15.548881 c -59.49815,-3.887221 -59.91175,4.081259 -119.49263,1.787735"
     id="path2242" /><path
     d="m -237.99261,-15.548881 c -59.49815,-3.887221 -59.49815,-3.887221 -118.9963,-7.774441"
     id="path2244" /><path
     d="m -237.99261,-15.548881 c -59.49815,-3.887221 -58.87145,-11.841777 -118.24426,-17.319909"
     id="path2246" /><path
     d="m -237.99261,-15.548881 c -59.49815,-3.887221 -58.03208,-19.776713 -117.23702,-26.841832"
     id="path2248" /><path
     d="m -237.99261,-15.548881 c -59.49815,-3.887221 -56.98066,-27.686343 -115.97532,-36.333388"
     id="path2250" /><path
     d="m -237.99261,-15.548881 c -59.49815,-3.887221 -55.71794,-35.565002 -114.46005,-45.787779"
     id="path2252" /><path
     d="m -237.99261,-15.548881 c -59.49815,-3.887221 -54.24482,-43.407046 -112.6923,-55.198231"
     id="path2254" /><path
     d="m -223.2399,-83.94162 c -55.80998,-20.9854 -65.42446,9.433892 -123.15733,-5.467654"
     id="path2256" /><path
     d="m -223.2399,-83.94162 c -55.80998,-20.9854 -63.32708,1.735274 -120.64047,-14.705995"
     id="path2258" /><path
     d="m -223.2399,-83.94162 c -55.80998,-20.9854 -61.02441,-5.904455 -117.87727,-23.87367"
     id="path2260" /><path
     d="m -223.2399,-83.94162 c -55.80998,-20.9854 -58.51811,-13.479824 -114.86972,-32.96411"
     id="path2262" /><path
     d="m -223.2399,-83.94162 c -55.80998,-20.9854 -55.80998,-20.9854 -111.61996,-41.97081"
     id="path2264" /><path
     d="m -223.2399,-83.94162 c -55.80998,-20.9854 -52.90195,-28.41582 -108.13032,-50.88731"
     id="path2266" /><path
     d="m -223.2399,-83.94162 c -55.80998,-20.9854 -49.79611,-35.76575 -104.40331,-59.70723"
     id="path2268" /><path
     d="m -223.2399,-83.94162 c -55.80998,-20.9854 -46.49468,-43.02993 -100.44159,-68.42424"
     id="path2270" /><path
     d="m -223.2399,-83.94162 c -55.80998,-20.9854 -43.00002,-50.20315 -96.24801,-77.03211"
     id="path2272" /><path
     d="m -202.01949,-126.76898 c -50.50488,-31.69224 -56.6616,-21.42889 -108.39782,-51.06846"
     id="path2274" /><path
     d="m -202.01949,-126.76898 c -50.50488,-31.69224 -52.60284,-28.29869 -103.52731,-59.31223"
     id="path2276" /><path
     d="m -202.01949,-126.76898 c -50.50488,-31.69224 -48.36169,-35.05741 -98.43792,-67.42269"
     id="path2278" /><path
     d="m -202.01949,-126.76898 c -50.50488,-31.69224 -43.94117,-41.70021 -93.1333,-75.39405"
     id="path2280" /><path
     d="m -185.3242,-150.12392 c -46.33105,-37.53098 -51.27014,-31.26415 -98.58901,-67.54176"
     id="path2282" /><path
     d="m -185.3242,-150.12392 c -46.33105,-37.53098 -46.33105,-37.53098 -92.6621,-75.06196"
     id="path2284" /><path
     d="m -185.3242,-150.12392 c -46.33105,-37.53098 -41.22601,-43.66338 -86.53606,-82.42084"
     id="path2286" /><path
     d="m -111.922,-210.60797 c -27.98049,-52.65199 -103.93505,4.97662 -147.10646,-36.14965"
     id="path2288" /><path
     d="m -111.922,-210.60797 c -27.98049,-52.65199 -98.35458,-0.72654 -140.40989,-42.99344"
     id="path2290" /><path
     d="m -111.922,-210.60797 c -27.98049,-52.65199 -92.62348,-6.27832 -133.53257,-49.65558"
     id="path2292" /><path
     d="m -111.922,-210.60797 c -27.98049,-52.65199 -86.74585,-11.67473 -126.47942,-56.13127"
     id="path2294" /><path
     d="m -111.922,-210.60797 c -27.98049,-52.65199 -80.72591,-16.91191 -119.2555,-62.41589"
     id="path2296" /><path
     d="m -111.922,-210.60797 c -27.98049,-52.65199 -74.56797,-21.98611 -111.86597,-68.50493"
     id="path2298" /><path
     d="m -111.922,-210.60797 c -27.98049,-52.65199 -68.27644,-26.89369 -104.31613,-74.39402"
     id="path2300" /><path
     d="m -111.922,-210.60797 c -27.98049,-52.65199 -43.5714,-43.7546 -74.67008,-94.62712"
     id="path2302" /><path
     d="m -111.922,-210.60797 c -27.98049,-52.65199 -17.3012,-58.05517 -43.14583,-111.78779"
     id="path2304" /><path
     d="m -111.922,-210.60797 c -27.98049,-52.65199 4.66464,-67.55453 -16.78683,-123.18703"
     id="path2306" /><path
     d="m -111.922,-210.60797 c -27.98049,-52.65199 62.282746,-83.3554 52.354895,-142.14807"
     id="path2308" /><path
     d="m -319.48791,-160.97373 c -53.24798,-26.82895 -58.73311,-15.52202 -112.76468,-40.7357"
     id="path2310" /><path
     d="m -319.48791,-160.97373 c -53.24798,-26.82895 -55.11416,-23.07839 -108.62874,-49.37155"
     id="path2312" /><path
     d="m -319.48791,-160.97373 c -53.24798,-26.82895 -51.34425,-30.56059 -104.32028,-57.92264"
     id="path2314" /><path
     d="m -319.48791,-160.97373 c -53.24798,-26.82895 -47.42492,-37.96562 -99.84104,-66.38552"
     id="path2316" /><path
     d="m -216.23813,-285.00199 c -36.03968,-47.50033 -42.66308,-42.36944 -79.64897,-89.13679"
     id="path2318" /><path
     d="m -216.23813,-285.00199 c -36.03968,-47.50033 -36.03968,-47.50033 -72.07937,-95.00067"
     id="path2320" /><path
     d="m -216.23813,-285.00199 c -36.03968,-47.50033 -29.31463,-52.49725 -64.39359,-100.71142"
     id="path2322" /><path
     d="m -186.59208,-305.23509 c -31.09868,-50.87251 -45.21647,-41.84802 -78.33198,-91.43132"
     id="path2324" /><path
     d="m -186.59208,-305.23509 c -31.09868,-50.87251 -38.20287,-46.43112 -70.31643,-96.66915"
     id="path2326" /><path
     d="m -186.59208,-305.23509 c -31.09868,-50.87251 -31.09868,-50.87251 -62.19735,-101.74503"
     id="path2328" /><path
     d="m -186.59208,-305.23509 c -31.09868,-50.87251 -23.90676,-55.17041 -53.97803,-106.65691"
     id="path2330" /><path
     d="m -186.59208,-305.23509 c -31.09868,-50.87251 -16.63003,-59.32309 -45.66176,-111.40282"
     id="path2332" /><path
     d="m -155.06783,-322.39576 c -25.84464,-53.73263 -33.35812,-50.02544 -60.27611,-103.22847"
     id="path2334" /><path
     d="m -155.06783,-322.39576 c -25.84464,-53.73263 -25.84464,-53.73263 -51.68928,-107.46526"
     id="path2336" /><path
     d="m -155.06783,-322.39576 c -25.84464,-53.73263 -18.25827,-57.28826 -43.01914,-111.52883"
     id="path2338" /><path
     d="m -128.70883,-333.795 c -21.45147,-55.6325 -29.23809,-52.53991 -51.80193,-107.73061"
     id="path2340" /><path
     d="m -128.70883,-333.795 c -21.45147,-55.6325 -21.45147,-55.6325 -42.90294,-111.265"
     id="path2342" /><path
     d="m -128.70883,-333.795 c -21.45147,-55.6325 -13.60434,-58.56816 -33.9348,-114.62004"
     id="path2344" /><path
     d="m -59.567105,-352.75604 c -9.92785,-58.79267 -66.882965,-45.00302 -84.947255,-101.82574"
     id="path2346" /><path
     d="m -59.567105,-352.75604 c -9.92785,-58.79267 -58.873375,-47.46108 -75.793445,-104.63495"
     id="path2348" /><path
     d="m -59.567105,-352.75604 c -9.92785,-58.79267 -50.816065,-49.75787 -66.585095,-107.25985"
     id="path2350" /><path
     d="m -59.567105,-352.75604 c -9.92785,-58.79267 -42.714275,-51.89246 -57.325905,-109.69939"
     id="path2352" /><path
     d="m -59.567105,-352.75604 c -9.92785,-58.79267 -34.571269,-53.864 -48.019605,-111.95258"
     id="path2354" /><path
     d="m -59.567105,-352.75604 c -9.92785,-58.79267 -26.39033,-55.67169 -38.669963,-114.01851"
     id="path2356" /><path
     d="m -59.567105,-352.75604 c -9.92785,-58.79267 -18.174753,-57.3148 -29.280733,-115.89635"
     id="path2358" /><path
     d="m -59.567105,-352.75604 c -9.92785,-58.79267 -9.92785,-58.79267 -19.855701,-117.58534"
     id="path2360" /><path
     d="m -59.567105,-352.75604 c -9.92785,-58.79267 -1.652944,-60.10471 -10.398665,-119.08481"
     id="path2362" /><path
     d="m -59.567105,-352.75604 c -9.92785,-58.79267 6.646631,-61.25038 -0.913437,-120.39415"
     id="path2364" /><path
     d="m -59.567105,-352.75604 c -9.92785,-58.79267 14.967531,-62.22922 8.596163,-121.51283"
     id="path2366" /><path
     d="m -59.567105,-352.75604 c -9.92785,-58.79267 23.306402,-63.04085 18.126302,-122.4404"
     id="path2368" /><path
     d="m -59.567105,-352.75604 c -9.92785,-58.79267 31.659885,-63.68493 27.67314,-123.17649"
     id="path2370" /><path
     d="m -59.567105,-352.75604 c -9.92785,-58.79267 40.024613,-64.1612 37.232829,-123.7208"
     id="path2372" /><path
     d="m -59.567105,-352.75604 c -9.92785,-58.79267 48.397216,-64.46947 46.801518,-124.07311"
     id="path2374" /></g><g
   transform="matrix(0.60939124,0,0,0.60949871,374.70635,378.98106)"
   id="g2882"><circle
     transform="rotate(62.971246)"
     fill="#555555"
     r="2.5"
     id="circle2378"
     cx="0"
     cy="0" /><circle
     transform="rotate(-78.881789,-59.625,-72.483123)"
     fill="#555555"
     r="2.5"
     id="circle2380"
     cx="0"
     cy="0" /><circle
     transform="rotate(-54.345048,-59.625,-116.15468)"
     fill="#555555"
     r="2.5"
     id="circle2382"
     cx="0"
     cy="0" /><circle
     transform="rotate(-30.191693,-59.625,-221.04378)"
     fill="#555555"
     r="2.5"
     id="circle2384"
     cx="0"
     cy="0" /><circle
     transform="rotate(-15.239617,-59.625,-445.69316)"
     fill="#555555"
     r="2.5"
     id="circle2386"
     cx="0"
     cy="0" /><circle
     transform="rotate(-7.1884984,-59.625,-949.23257)"
     fill="#555555"
     r="2.5"
     id="circle2388"
     cx="0"
     cy="0" /><circle
     transform="rotate(5.4632588,-59.625,1249.6835)"
     fill="#555555"
     r="2.5"
     id="circle2390"
     cx="0"
     cy="0" /><circle
     transform="rotate(50.319489,-59.625,126.941)"
     fill="#555555"
     r="2.5"
     id="circle2392"
     cx="0"
     cy="0" /><circle
     transform="rotate(97.476038,-59.625,52.311782)"
     fill="#555555"
     r="2.5"
     id="circle2394"
     cx="0"
     cy="0" /><circle
     transform="rotate(136.96486,-59.625,23.508038)"
     fill="#555555"
     r="2.5"
     id="circle2396"
     cx="0"
     cy="0" /><circle
     transform="rotate(-155.17572,-59.625,-13.122652)"
     fill="#555555"
     r="2.5"
     id="circle2398"
     cx="0"
     cy="0" /><circle
     transform="rotate(-86.166134,-119.25,-127.50884)"
     fill="#555555"
     r="2.5"
     id="circle2400"
     cx="0"
     cy="0" /><circle
     transform="rotate(-77.731629,-119.25,-147.96871)"
     fill="#555555"
     r="2.5"
     id="circle2402"
     cx="0"
     cy="0" /><circle
     transform="rotate(-71.597444,-119.25,-165.35198)"
     fill="#555555"
     r="2.5"
     id="circle2404"
     cx="0"
     cy="0" /><circle
     transform="rotate(-66.996805,-119.25,-180.17801)"
     fill="#999999"
     r="2.5"
     id="circle2406"
     cx="0"
     cy="0" /><circle
     transform="rotate(-64.696486,-119.25,-188.28366)"
     fill="#999999"
     r="2.5"
     id="circle2408"
     cx="0"
     cy="0" /><circle
     transform="rotate(-62.396166,-119.25,-196.92002)"
     fill="#999999"
     r="2.5"
     id="circle2410"
     cx="0"
     cy="0" /><circle
     transform="rotate(-60.095847,-119.25,-206.14866)"
     fill="#999999"
     r="2.5"
     id="circle2412"
     cx="0"
     cy="0" /><circle
     transform="rotate(-57.795527,-119.25,-216.04093)"
     fill="#999999"
     r="2.5"
     id="circle2414"
     cx="0"
     cy="0" /><circle
     transform="rotate(-55.495208,-119.25,-226.67997)"
     fill="#999999"
     r="2.5"
     id="circle2416"
     cx="0"
     cy="0" /><circle
     transform="rotate(-53.194888,-119.25,-238.16328)"
     fill="#999999"
     r="2.5"
     id="circle2418"
     cx="0"
     cy="0" /><circle
     transform="rotate(-50.894569,-119.25,-250.60595)"
     fill="#999999"
     r="2.5"
     id="circle2420"
     cx="0"
     cy="0" /><circle
     transform="rotate(-48.594249,-119.25,-264.14482)"
     fill="#999999"
     r="2.5"
     id="circle2422"
     cx="0"
     cy="0" /><circle
     transform="rotate(-46.29393,-119.25,-278.94391)"
     fill="#999999"
     r="2.5"
     id="circle2424"
     cx="0"
     cy="0" /><circle
     transform="rotate(-43.99361,-119.25,-295.2015)"
     fill="#999999"
     r="2.5"
     id="circle2426"
     cx="0"
     cy="0" /><circle
     transform="rotate(-41.693291,-119.25,-313.1596)"
     fill="#555555"
     r="2.5"
     id="circle2428"
     cx="0"
     cy="0" /><circle
     transform="rotate(-37.092652,-119.25,-355.44534)"
     fill="#999999"
     r="2.5"
     id="circle2430"
     cx="0"
     cy="0" /><circle
     transform="rotate(-34.792332,-119.25,-380.61646)"
     fill="#999999"
     r="2.5"
     id="circle2432"
     cx="0"
     cy="0" /><circle
     transform="rotate(-32.492013,-119.25,-409.23439)"
     fill="#999999"
     r="2.5"
     id="circle2434"
     cx="0"
     cy="0" /><circle
     transform="rotate(-30.191693,-119.25,-442.08756)"
     fill="#999999"
     r="2.5"
     id="circle2436"
     cx="0"
     cy="0" /><circle
     transform="rotate(-27.891374,-119.25,-480.22448)"
     fill="#999999"
     r="2.5"
     id="circle2438"
     cx="0"
     cy="0" /><circle
     transform="rotate(-25.591054,-119.25,-525.07056)"
     fill="#999999"
     r="2.5"
     id="circle2440"
     cx="0"
     cy="0" /><circle
     transform="rotate(-23.290735,-119.25,-578.61433)"
     fill="#555555"
     r="2.5"
     id="circle2442"
     cx="0"
     cy="0" /><circle
     transform="rotate(-18.690096,-119.25,-724.64339)"
     fill="#999999"
     r="2.5"
     id="circle2444"
     cx="0"
     cy="0" /><circle
     transform="rotate(-16.389776,-119.25,-828.06099)"
     fill="#999999"
     r="2.5"
     id="circle2446"
     cx="0"
     cy="0" /><circle
     transform="rotate(-14.089457,-119.25,-964.98489)"
     fill="#999999"
     r="2.5"
     id="circle2448"
     cx="0"
     cy="0" /><circle
     transform="rotate(-11.789137,-119.25,-1155.0292)"
     fill="#999999"
     r="2.5"
     id="circle2450"
     cx="0"
     cy="0" /><circle
     transform="rotate(-7.1884984,-119.25,-1898.4651)"
     fill="#999999"
     r="2.5"
     id="circle2452"
     cx="0"
     cy="0" /><circle
     transform="rotate(-2.5878594,-119.25,-5279.545)"
     fill="#999999"
     r="2.5"
     id="circle2454"
     cx="0"
     cy="0" /><circle
     transform="rotate(-0.28753994,-119.25,-47523.885)"
     fill="#999999"
     r="2.5"
     id="circle2456"
     cx="0"
     cy="0" /><circle
     transform="rotate(2.0127796,-119.25,6788.4424)"
     fill="#999999"
     r="2.5"
     id="circle2458"
     cx="0"
     cy="0" /><circle
     transform="rotate(4.313099,-119.25,3166.7693)"
     fill="#999999"
     r="2.5"
     id="circle2460"
     cx="0"
     cy="0" /><circle
     transform="rotate(6.6134185,-119.25,2063.9656)"
     fill="#999999"
     r="2.5"
     id="circle2462"
     cx="0"
     cy="0" /><circle
     transform="rotate(8.913738,-119.25,1529.9385)"
     fill="#999999"
     r="2.5"
     id="circle2464"
     cx="0"
     cy="0" /><circle
     transform="rotate(11.214058,-119.25,1214.6712)"
     fill="#999999"
     r="2.5"
     id="circle2466"
     cx="0"
     cy="0" /><circle
     transform="rotate(13.514377,-119.25,1006.4563)"
     fill="#999999"
     r="2.5"
     id="circle2468"
     cx="0"
     cy="0" /><circle
     transform="rotate(18.115016,-119.25,748.05465)"
     fill="#999999"
     r="2.5"
     id="circle2470"
     cx="0"
     cy="0" /><circle
     transform="rotate(20.415335,-119.25,662.2551)"
     fill="#999999"
     r="2.5"
     id="circle2472"
     cx="0"
     cy="0" /><circle
     transform="rotate(22.715655,-119.25,593.669)"
     fill="#999999"
     r="2.5"
     id="circle2474"
     cx="0"
     cy="0" /><circle
     transform="rotate(25.015974,-119.25,537.54735)"
     fill="#999999"
     r="2.5"
     id="circle2476"
     cx="0"
     cy="0" /><circle
     transform="rotate(27.316294,-119.25,490.74078)"
     fill="#999999"
     r="2.5"
     id="circle2478"
     cx="0"
     cy="0" /><circle
     transform="rotate(29.616613,-119.25,451.07833)"
     fill="#999999"
     r="2.5"
     id="circle2480"
     cx="0"
     cy="0" /><circle
     transform="rotate(31.916933,-119.25,417.01484)"
     fill="#999999"
     r="2.5"
     id="circle2482"
     cx="0"
     cy="0" /><circle
     transform="rotate(34.217252,-119.25,387.42063)"
     fill="#999999"
     r="2.5"
     id="circle2484"
     cx="0"
     cy="0" /><circle
     transform="rotate(36.517572,-119.25,361.45063)"
     fill="#999999"
     r="2.5"
     id="circle2486"
     cx="0"
     cy="0" /><circle
     transform="rotate(38.817891,-119.25,338.46005)"
     fill="#999999"
     r="2.5"
     id="circle2488"
     cx="0"
     cy="0" /><circle
     transform="rotate(41.118211,-119.25,317.94835)"
     fill="#999999"
     r="2.5"
     id="circle2490"
     cx="0"
     cy="0" /><circle
     transform="rotate(43.41853,-119.25,299.52102)"
     fill="#999999"
     r="2.5"
     id="circle2492"
     cx="0"
     cy="0" /><circle
     transform="rotate(45.71885,-119.25,282.86295)"
     fill="#999999"
     r="2.5"
     id="circle2494"
     cx="0"
     cy="0" /><circle
     transform="rotate(48.019169,-119.25,267.71935)"
     fill="#999999"
     r="2.5"
     id="circle2496"
     cx="0"
     cy="0" /><circle
     transform="rotate(50.319489,-119.25,253.882)"
     fill="#999999"
     r="2.5"
     id="circle2498"
     cx="0"
     cy="0" /><circle
     transform="rotate(52.619808,-119.25,241.17907)"
     fill="#999999"
     r="2.5"
     id="circle2500"
     cx="0"
     cy="0" /><circle
     transform="rotate(54.920128,-119.25,229.46748)"
     fill="#999999"
     r="2.5"
     id="circle2502"
     cx="0"
     cy="0" /><circle
     transform="rotate(57.220447,-119.25,218.62714)"
     fill="#999999"
     r="2.5"
     id="circle2504"
     cx="0"
     cy="0" /><circle
     transform="rotate(59.520767,-119.25,208.55649)"
     fill="#999999"
     r="2.5"
     id="circle2506"
     cx="0"
     cy="0" /><circle
     transform="rotate(61.821086,-119.25,199.16905)"
     fill="#999999"
     r="2.5"
     id="circle2508"
     cx="0"
     cy="0" /><circle
     transform="rotate(64.121406,-119.25,190.39074)"
     fill="#999999"
     r="2.5"
     id="circle2510"
     cx="0"
     cy="0" /><circle
     transform="rotate(66.421725,-119.25,182.15772)"
     fill="#999999"
     r="2.5"
     id="circle2512"
     cx="0"
     cy="0" /><circle
     transform="rotate(68.722045,-119.25,174.41464)"
     fill="#999999"
     r="2.5"
     id="circle2514"
     cx="0"
     cy="0" /><circle
     transform="rotate(71.022364,-119.25,167.11334)"
     fill="#999999"
     r="2.5"
     id="circle2516"
     cx="0"
     cy="0" /><circle
     transform="rotate(73.322684,-119.25,160.21163)"
     fill="#999999"
     r="2.5"
     id="circle2518"
     cx="0"
     cy="0" /><circle
     transform="rotate(75.623003,-119.25,153.67247)"
     fill="#999999"
     r="2.5"
     id="circle2520"
     cx="0"
     cy="0" /><circle
     transform="rotate(77.923323,-119.25,147.46313)"
     fill="#999999"
     r="2.5"
     id="circle2522"
     cx="0"
     cy="0" /><circle
     transform="rotate(80.223642,-119.25,141.55464)"
     fill="#999999"
     r="2.5"
     id="circle2524"
     cx="0"
     cy="0" /><circle
     transform="rotate(82.523962,-119.25,135.92122)"
     fill="#555555"
     r="2.5"
     id="circle2526"
     cx="0"
     cy="0" /><circle
     transform="rotate(87.124601,-119.25,125.38994)"
     fill="#999999"
     r="2.5"
     id="circle2528"
     cx="0"
     cy="0" /><circle
     transform="rotate(89.42492,-119.25,120.45296)"
     fill="#999999"
     r="2.5"
     id="circle2530"
     cx="0"
     cy="0" /><circle
     transform="rotate(91.72524,-119.25,115.71225)"
     fill="#999999"
     r="2.5"
     id="circle2532"
     cx="0"
     cy="0" /><circle
     transform="rotate(94.025559,-119.25,111.15271)"
     fill="#999999"
     r="2.5"
     id="circle2534"
     cx="0"
     cy="0" /><circle
     transform="rotate(96.325879,-119.25,106.76068)"
     fill="#999999"
     r="2.5"
     id="circle2536"
     cx="0"
     cy="0" /><circle
     transform="rotate(98.626198,-119.25,102.52376)"
     fill="#999999"
     r="2.5"
     id="circle2538"
     cx="0"
     cy="0" /><circle
     transform="rotate(100.92652,-119.25,98.430615)"
     fill="#999999"
     r="2.5"
     id="circle2540"
     cx="0"
     cy="0" /><circle
     transform="rotate(103.22684,-119.25,94.470921)"
     fill="#999999"
     r="2.5"
     id="circle2542"
     cx="0"
     cy="0" /><circle
     transform="rotate(105.52716,-119.25,90.635213)"
     fill="#999999"
     r="2.5"
     id="circle2544"
     cx="0"
     cy="0" /><circle
     transform="rotate(107.82748,-119.25,86.914806)"
     fill="#999999"
     r="2.5"
     id="circle2546"
     cx="0"
     cy="0" /><circle
     transform="rotate(112.42812,-119.25,79.788554)"
     fill="#999999"
     r="2.5"
     id="circle2548"
     cx="0"
     cy="0" /><circle
     transform="rotate(114.72843,-119.25,76.368533)"
     fill="#999999"
     r="2.5"
     id="circle2550"
     cx="0"
     cy="0" /><circle
     transform="rotate(117.02875,-119.25,73.035341)"
     fill="#999999"
     r="2.5"
     id="circle2552"
     cx="0"
     cy="0" /><circle
     transform="rotate(119.32907,-119.25,69.783123)"
     fill="#999999"
     r="2.5"
     id="circle2554"
     cx="0"
     cy="0" /><circle
     transform="rotate(121.62939,-119.25,66.606436)"
     fill="#999999"
     r="2.5"
     id="circle2556"
     cx="0"
     cy="0" /><circle
     transform="rotate(123.92971,-119.25,63.500204)"
     fill="#999999"
     r="2.5"
     id="circle2558"
     cx="0"
     cy="0" /><circle
     transform="rotate(126.23003,-119.25,60.459686)"
     fill="#999999"
     r="2.5"
     id="circle2560"
     cx="0"
     cy="0" /><circle
     transform="rotate(128.53035,-119.25,57.480443)"
     fill="#999999"
     r="2.5"
     id="circle2562"
     cx="0"
     cy="0" /><circle
     transform="rotate(130.83067,-119.25,54.558309)"
     fill="#999999"
     r="2.5"
     id="circle2564"
     cx="0"
     cy="0" /><circle
     transform="rotate(133.13099,-119.25,51.689369)"
     fill="#999999"
     r="2.5"
     id="circle2566"
     cx="0"
     cy="0" /><circle
     transform="rotate(135.43131,-119.25,48.86993)"
     fill="#999999"
     r="2.5"
     id="circle2568"
     cx="0"
     cy="0" /><circle
     transform="rotate(137.73163,-119.25,46.096508)"
     fill="#999999"
     r="2.5"
     id="circle2570"
     cx="0"
     cy="0" /><circle
     transform="rotate(140.03195,-119.25,43.365802)"
     fill="#999999"
     r="2.5"
     id="circle2572"
     cx="0"
     cy="0" /><circle
     transform="rotate(142.33227,-119.25,40.674681)"
     fill="#999999"
     r="2.5"
     id="circle2574"
     cx="0"
     cy="0" /><circle
     transform="rotate(144.63259,-119.25,38.020166)"
     fill="#999999"
     r="2.5"
     id="circle2576"
     cx="0"
     cy="0" /><circle
     transform="rotate(146.93291,-119.25,35.399419)"
     fill="#999999"
     r="2.5"
     id="circle2578"
     cx="0"
     cy="0" /><circle
     transform="rotate(149.23323,-119.25,32.809724)"
     fill="#555555"
     r="2.5"
     id="circle2580"
     cx="0"
     cy="0" /><circle
     transform="rotate(154.60064,-119.25,26.873449)"
     fill="#555555"
     r="2.5"
     id="circle2582"
     cx="0"
     cy="0" /><circle
     transform="rotate(161.5016,-119.25,19.419389)"
     fill="#555555"
     r="2.5"
     id="circle2584"
     cx="0"
     cy="0" /><circle
     transform="rotate(167.63578,-119.25,12.91702)"
     fill="#999999"
     r="2.5"
     id="circle2586"
     cx="0"
     cy="0" /><circle
     transform="rotate(169.9361,-119.25,10.500031)"
     fill="#555555"
     r="2.5"
     id="circle2588"
     cx="0"
     cy="0" /><circle
     transform="rotate(-176.26198,-119.25,-3.8913596)"
     fill="#555555"
     r="2.5"
     id="circle2590"
     cx="0"
     cy="0" /><circle
     transform="rotate(-159.39297,-119.25,-21.678954)"
     fill="#555555"
     r="2.5"
     id="circle2592"
     cx="0"
     cy="0" /><circle
     transform="rotate(-147.89137,-119.25,-34.316757)"
     fill="#555555"
     r="2.5"
     id="circle2594"
     cx="0"
     cy="0" /><circle
     transform="rotate(-140.99042,-119.25,-42.239865)"
     fill="#555555"
     r="2.5"
     id="circle2596"
     cx="0"
     cy="0" /><circle
     transform="rotate(-117.98722,-119.25,-71.670731)"
     fill="#555555"
     r="2.5"
     id="circle2598"
     cx="0"
     cy="0" /><circle
     transform="rotate(-88.466454,-178.875,-183.7279)"
     fill="#999999"
     r="2.5"
     id="circle2600"
     cx="0"
     cy="0" /><circle
     transform="rotate(-86.932907,-178.875,-188.71608)"
     fill="#999999"
     r="2.5"
     id="circle2602"
     cx="0"
     cy="0" /><circle
     transform="rotate(-85.399361,-178.875,-193.84715)"
     fill="#999999"
     r="2.5"
     id="circle2604"
     cx="0"
     cy="0" /><circle
     transform="rotate(-83.865815,-178.875,-199.12924)"
     fill="#999999"
     r="2.5"
     id="circle2606"
     cx="0"
     cy="0" /><circle
     transform="rotate(-80.798722,-178.875,-210.18216)"
     fill="#999999"
     r="2.5"
     id="circle2608"
     cx="0"
     cy="0" /><circle
     transform="rotate(-79.265176,-178.875,-215.97251)"
     fill="#999999"
     r="2.5"
     id="circle2610"
     cx="0"
     cy="0" /><circle
     transform="rotate(-77.731629,-178.875,-221.95306)"
     fill="#999999"
     r="2.5"
     id="circle2612"
     cx="0"
     cy="0" /><circle
     transform="rotate(-76.198083,-178.875,-228.1356)"
     fill="#999999"
     r="2.5"
     id="circle2614"
     cx="0"
     cy="0" /><circle
     transform="rotate(-74.664537,-178.875,-234.53287)"
     fill="#999999"
     r="2.5"
     id="circle2616"
     cx="0"
     cy="0" /><circle
     transform="rotate(-71.597444,-178.875,-248.02796)"
     fill="#999999"
     r="2.5"
     id="circle2618"
     cx="0"
     cy="0" /><circle
     transform="rotate(-47.827476,-178.875,-403.39322)"
     fill="#999999"
     r="2.5"
     id="circle2620"
     cx="0"
     cy="0" /><circle
     transform="rotate(-46.29393,-178.875,-418.41586)"
     fill="#999999"
     r="2.5"
     id="circle2622"
     cx="0"
     cy="0" /><circle
     transform="rotate(-44.760383,-178.875,-434.40949)"
     fill="#999999"
     r="2.5"
     id="circle2624"
     cx="0"
     cy="0" /><circle
     transform="rotate(-43.226837,-178.875,-451.47773)"
     fill="#999999"
     r="2.5"
     id="circle2626"
     cx="0"
     cy="0" /><circle
     transform="rotate(-41.693291,-178.875,-469.7394)"
     fill="#999999"
     r="2.5"
     id="circle2628"
     cx="0"
     cy="0" /><circle
     transform="rotate(-40.159744,-178.875,-489.33149)"
     fill="#999999"
     r="2.5"
     id="circle2630"
     cx="0"
     cy="0" /><circle
     transform="rotate(-38.626198,-178.875,-510.41271)"
     fill="#999999"
     r="2.5"
     id="circle2632"
     cx="0"
     cy="0" /><circle
     transform="rotate(-37.092652,-178.875,-533.16801)"
     fill="#999999"
     r="2.5"
     id="circle2634"
     cx="0"
     cy="0" /><circle
     transform="rotate(-35.559105,-178.875,-557.81425)"
     fill="#999999"
     r="2.5"
     id="circle2636"
     cx="0"
     cy="0" /><circle
     transform="rotate(-26.357827,-178.875,-763.90191)"
     fill="#999999"
     r="2.5"
     id="circle2638"
     cx="0"
     cy="0" /><circle
     transform="rotate(-24.824281,-178.875,-812.74897)"
     fill="#999999"
     r="2.5"
     id="circle2640"
     cx="0"
     cy="0" /><circle
     transform="rotate(-23.290735,-178.875,-867.92149)"
     fill="#999999"
     r="2.5"
     id="circle2642"
     cx="0"
     cy="0" /><circle
     transform="rotate(-21.757188,-178.875,-930.75728)"
     fill="#999999"
     r="2.5"
     id="circle2644"
     cx="0"
     cy="0" /><circle
     transform="rotate(-20.223642,-178.875,-1002.9999)"
     fill="#999999"
     r="2.5"
     id="circle2646"
     cx="0"
     cy="0" /><circle
     transform="rotate(58.753994,-178.875,317.7502)"
     fill="#999999"
     r="2.5"
     id="circle2648"
     cx="0"
     cy="0" /><circle
     transform="rotate(60.28754,-178.875,308.03298)"
     fill="#999999"
     r="2.5"
     id="circle2650"
     cx="0"
     cy="0" /><circle
     transform="rotate(61.821086,-178.875,298.75358)"
     fill="#999999"
     r="2.5"
     id="circle2652"
     cx="0"
     cy="0" /><circle
     transform="rotate(63.354633,-178.875,289.87994)"
     fill="#999999"
     r="2.5"
     id="circle2654"
     cx="0"
     cy="0" /><circle
     transform="rotate(64.888179,-178.875,281.38306)"
     fill="#999999"
     r="2.5"
     id="circle2656"
     cx="0"
     cy="0" /><circle
     transform="rotate(66.421725,-178.875,273.23658)"
     fill="#999999"
     r="2.5"
     id="circle2658"
     cx="0"
     cy="0" /><circle
     transform="rotate(67.955272,-178.875,265.41651)"
     fill="#999999"
     r="2.5"
     id="circle2660"
     cx="0"
     cy="0" /><circle
     transform="rotate(69.488818,-178.875,257.90098)"
     fill="#999999"
     r="2.5"
     id="circle2662"
     cx="0"
     cy="0" /><circle
     transform="rotate(71.022364,-178.875,250.67001)"
     fill="#999999"
     r="2.5"
     id="circle2664"
     cx="0"
     cy="0" /><circle
     transform="rotate(72.555911,-178.875,243.70527)"
     fill="#999999"
     r="2.5"
     id="circle2666"
     cx="0"
     cy="0" /><circle
     transform="rotate(74.089457,-178.875,236.98999)"
     fill="#999999"
     r="2.5"
     id="circle2668"
     cx="0"
     cy="0" /><circle
     transform="rotate(75.623003,-178.875,230.5087)"
     fill="#999999"
     r="2.5"
     id="circle2670"
     cx="0"
     cy="0" /><circle
     transform="rotate(77.15655,-178.875,224.24718)"
     fill="#999999"
     r="2.5"
     id="circle2672"
     cx="0"
     cy="0" /><circle
     transform="rotate(78.690096,-178.875,218.19231)"
     fill="#999999"
     r="2.5"
     id="circle2674"
     cx="0"
     cy="0" /><circle
     transform="rotate(80.223642,-178.875,212.33196)"
     fill="#999999"
     r="2.5"
     id="circle2676"
     cx="0"
     cy="0" /><circle
     transform="rotate(81.757188,-178.875,206.65491)"
     fill="#999999"
     r="2.5"
     id="circle2678"
     cx="0"
     cy="0" /><circle
     transform="rotate(83.290735,-178.875,201.15073)"
     fill="#999999"
     r="2.5"
     id="circle2680"
     cx="0"
     cy="0" /><circle
     transform="rotate(84.824281,-178.875,195.80978)"
     fill="#999999"
     r="2.5"
     id="circle2682"
     cx="0"
     cy="0" /><circle
     transform="rotate(86.357827,-178.875,190.62306)"
     fill="#999999"
     r="2.5"
     id="circle2684"
     cx="0"
     cy="0" /><circle
     transform="rotate(87.891374,-178.875,185.58222)"
     fill="#999999"
     r="2.5"
     id="circle2686"
     cx="0"
     cy="0" /><circle
     transform="rotate(89.42492,-178.875,180.67945)"
     fill="#999999"
     r="2.5"
     id="circle2688"
     cx="0"
     cy="0" /><circle
     transform="rotate(90.958466,-178.875,175.90746)"
     fill="#999999"
     r="2.5"
     id="circle2690"
     cx="0"
     cy="0" /><circle
     transform="rotate(92.492013,-178.875,171.25946)"
     fill="#999999"
     r="2.5"
     id="circle2692"
     cx="0"
     cy="0" /><circle
     transform="rotate(94.025559,-178.875,166.72906)"
     fill="#999999"
     r="2.5"
     id="circle2694"
     cx="0"
     cy="0" /><circle
     transform="rotate(95.559105,-178.875,162.3103)"
     fill="#999999"
     r="2.5"
     id="circle2696"
     cx="0"
     cy="0" /><circle
     transform="rotate(97.092652,-178.875,157.99758)"
     fill="#999999"
     r="2.5"
     id="circle2698"
     cx="0"
     cy="0" /><circle
     transform="rotate(98.626198,-178.875,153.78564)"
     fill="#999999"
     r="2.5"
     id="circle2700"
     cx="0"
     cy="0" /><circle
     transform="rotate(100.15974,-178.875,149.66952)"
     fill="#999999"
     r="2.5"
     id="circle2702"
     cx="0"
     cy="0" /><circle
     transform="rotate(101.69329,-178.875,145.64456)"
     fill="#999999"
     r="2.5"
     id="circle2704"
     cx="0"
     cy="0" /><circle
     transform="rotate(103.22684,-178.875,141.70638)"
     fill="#999999"
     r="2.5"
     id="circle2706"
     cx="0"
     cy="0" /><circle
     transform="rotate(104.76038,-178.875,137.85084)"
     fill="#999999"
     r="2.5"
     id="circle2708"
     cx="0"
     cy="0" /><circle
     transform="rotate(106.29393,-178.875,134.07401)"
     fill="#999999"
     r="2.5"
     id="circle2710"
     cx="0"
     cy="0" /><circle
     transform="rotate(148.46645,-178.875,50.504502)"
     fill="#999999"
     r="2.5"
     id="circle2712"
     cx="0"
     cy="0" /><circle
     transform="rotate(150,-178.875,47.929412)"
     fill="#999999"
     r="2.5"
     id="circle2714"
     cx="0"
     cy="0" /><circle
     transform="rotate(153.06709,-178.875,42.833337)"
     fill="#999999"
     r="2.5"
     id="circle2716"
     cx="0"
     cy="0" /><circle
     transform="rotate(154.60064,-178.875,40.310174)"
     fill="#999999"
     r="2.5"
     id="circle2718"
     cx="0"
     cy="0" /><circle
     transform="rotate(156.13419,-178.875,37.802185)"
     fill="#999999"
     r="2.5"
     id="circle2720"
     cx="0"
     cy="0" /><circle
     transform="rotate(159.20128,-178.875,32.827644)"
     fill="#999999"
     r="2.5"
     id="circle2722"
     cx="0"
     cy="0" /><circle
     transform="rotate(160.73482,-178.875,30.3591)"
     fill="#999999"
     r="2.5"
     id="circle2724"
     cx="0"
     cy="0" /><circle
     transform="rotate(162.26837,-178.875,27.901745)"
     fill="#999999"
     r="2.5"
     id="circle2726"
     cx="0"
     cy="0" /><circle
     transform="rotate(163.80192,-178.875,25.45463)"
     fill="#999999"
     r="2.5"
     id="circle2728"
     cx="0"
     cy="0" /><circle
     transform="rotate(166.86901,-178.875,20.587387)"
     fill="#999999"
     r="2.5"
     id="circle2730"
     cx="0"
     cy="0" /><circle
     transform="rotate(168.40256,-178.875,18.165429)"
     fill="#999999"
     r="2.5"
     id="circle2732"
     cx="0"
     cy="0" /><circle
     transform="rotate(169.9361,-178.875,15.750046)"
     fill="#999999"
     r="2.5"
     id="circle2734"
     cx="0"
     cy="0" /><circle
     transform="rotate(171.46965,-178.875,13.340349)"
     fill="#999999"
     r="2.5"
     id="circle2736"
     cx="0"
     cy="0" /><circle
     transform="rotate(173.00319,-178.875,10.935458)"
     fill="#999999"
     r="2.5"
     id="circle2738"
     cx="0"
     cy="0" /><circle
     transform="rotate(176.07029,-178.875,6.1366038)"
     fill="#999999"
     r="2.5"
     id="circle2740"
     cx="0"
     cy="0" /><circle
     transform="rotate(177.60383,-178.875,3.7409099)"
     fill="#999999"
     r="2.5"
     id="circle2742"
     cx="0"
     cy="0" /><circle
     transform="rotate(179.13738,-178.875,1.3465567)"
     fill="#999999"
     r="2.5"
     id="circle2744"
     cx="0"
     cy="0" /><circle
     transform="rotate(-179.32907,-178.875,-1.0473141)"
     fill="#999999"
     r="2.5"
     id="circle2746"
     cx="0"
     cy="0" /><circle
     transform="rotate(-177.79553,-178.875,-3.4415601)"
     fill="#999999"
     r="2.5"
     id="circle2748"
     cx="0"
     cy="0" /><circle
     transform="rotate(-176.26198,-178.875,-5.8370394)"
     fill="#999999"
     r="2.5"
     id="circle2750"
     cx="0"
     cy="0" /><circle
     transform="rotate(-174.72843,-178.875,-8.234612)"
     fill="#999999"
     r="2.5"
     id="circle2752"
     cx="0"
     cy="0" /><circle
     transform="rotate(-173.19489,-178.875,-10.635141)"
     fill="#999999"
     r="2.5"
     id="circle2754"
     cx="0"
     cy="0" /><circle
     transform="rotate(-171.66134,-178.875,-13.039493)"
     fill="#999999"
     r="2.5"
     id="circle2756"
     cx="0"
     cy="0" /><circle
     transform="rotate(-170.1278,-178.875,-15.448541)"
     fill="#999999"
     r="2.5"
     id="circle2758"
     cx="0"
     cy="0" /><circle
     transform="rotate(-168.59425,-178.875,-17.863165)"
     fill="#999999"
     r="2.5"
     id="circle2760"
     cx="0"
     cy="0" /><circle
     transform="rotate(-165.52716,-178.875,-22.712699)"
     fill="#999999"
     r="2.5"
     id="circle2762"
     cx="0"
     cy="0" /><circle
     transform="rotate(-163.99361,-178.875,-25.149413)"
     fill="#999999"
     r="2.5"
     id="circle2764"
     cx="0"
     cy="0" /><circle
     transform="rotate(-162.46006,-178.875,-27.595315)"
     fill="#999999"
     r="2.5"
     id="circle2766"
     cx="0"
     cy="0" /><circle
     transform="rotate(-160.92652,-178.875,-30.051339)"
     fill="#999999"
     r="2.5"
     id="circle2768"
     cx="0"
     cy="0" /><circle
     transform="rotate(-159.39297,-178.875,-32.518431)"
     fill="#999999"
     r="2.5"
     id="circle2770"
     cx="0"
     cy="0" /><circle
     transform="rotate(-157.85942,-178.875,-34.997558)"
     fill="#999999"
     r="2.5"
     id="circle2772"
     cx="0"
     cy="0" /><circle
     transform="rotate(-156.32588,-178.875,-37.489702)"
     fill="#999999"
     r="2.5"
     id="circle2774"
     cx="0"
     cy="0" /><circle
     transform="rotate(-154.79233,-178.875,-39.995867)"
     fill="#999999"
     r="2.5"
     id="circle2776"
     cx="0"
     cy="0" /><circle
     transform="rotate(-153.25879,-178.875,-42.517076)"
     fill="#555555"
     r="2.5"
     id="circle2778"
     cx="0"
     cy="0" /><circle
     transform="rotate(-150.19169,-178.875,-47.608842)"
     fill="#999999"
     r="2.5"
     id="circle2780"
     cx="0"
     cy="0" /><circle
     transform="rotate(-148.65815,-178.875,-50.181571)"
     fill="#999999"
     r="2.5"
     id="circle2782"
     cx="0"
     cy="0" /><circle
     transform="rotate(-147.1246,-178.875,-52.773692)"
     fill="#999999"
     r="2.5"
     id="circle2784"
     cx="0"
     cy="0" /><circle
     transform="rotate(-145.59105,-178.875,-55.386364)"
     fill="#999999"
     r="2.5"
     id="circle2786"
     cx="0"
     cy="0" /><circle
     transform="rotate(-142.52396,-178.875,-60.67817)"
     fill="#999999"
     r="2.5"
     id="circle2788"
     cx="0"
     cy="0" /><circle
     transform="rotate(-140.99042,-178.875,-63.359798)"
     fill="#999999"
     r="2.5"
     id="circle2790"
     cx="0"
     cy="0" /><circle
     transform="rotate(-139.45687,-178.875,-66.066972)"
     fill="#999999"
     r="2.5"
     id="circle2792"
     cx="0"
     cy="0" /><circle
     transform="rotate(-136.38978,-178.875,-71.563408)"
     fill="#999999"
     r="2.5"
     id="circle2794"
     cx="0"
     cy="0" /><circle
     transform="rotate(-134.85623,-178.875,-74.355514)"
     fill="#999999"
     r="2.5"
     id="circle2796"
     cx="0"
     cy="0" /><circle
     transform="rotate(-133.32268,-178.875,-77.178861)"
     fill="#999999"
     r="2.5"
     id="circle2798"
     cx="0"
     cy="0" /><circle
     transform="rotate(-131.78914,-178.875,-80.035004)"
     fill="#999999"
     r="2.5"
     id="circle2800"
     cx="0"
     cy="0" /><circle
     transform="rotate(-130.25559,-178.875,-82.92556)"
     fill="#999999"
     r="2.5"
     id="circle2802"
     cx="0"
     cy="0" /><circle
     transform="rotate(-128.72204,-178.875,-85.852209)"
     fill="#999999"
     r="2.5"
     id="circle2804"
     cx="0"
     cy="0" /><circle
     transform="rotate(-127.1885,-178.875,-88.8167)"
     fill="#555555"
     r="2.5"
     id="circle2806"
     cx="0"
     cy="0" /><circle
     transform="rotate(-121.4377,-178.875,-100.3026)"
     fill="#555555"
     r="2.5"
     id="circle2808"
     cx="0"
     cy="0" /><circle
     transform="rotate(-115.6869,-178.875,-112.45424)"
     fill="#555555"
     r="2.5"
     id="circle2810"
     cx="0"
     cy="0" /><circle
     transform="rotate(-111.08626,-178.875,-122.73923)"
     fill="#555555"
     r="2.5"
     id="circle2812"
     cx="0"
     cy="0" /><circle
     transform="rotate(-99.584665,-178.875,-151.20213)"
     fill="#555555"
     r="2.5"
     id="circle2814"
     cx="0"
     cy="0" /><circle
     transform="rotate(-154.98403,-238.5,-52.90906)"
     fill="#999999"
     r="2.5"
     id="circle2816"
     cx="0"
     cy="0" /><circle
     transform="rotate(-153.83387,-238.5,-55.426392)"
     fill="#999999"
     r="2.5"
     id="circle2818"
     cx="0"
     cy="0" /><circle
     transform="rotate(-152.68371,-238.5,-57.955495)"
     fill="#999999"
     r="2.5"
     id="circle2820"
     cx="0"
     cy="0" /><circle
     transform="rotate(-151.53355,-238.5,-60.496966)"
     fill="#999999"
     r="2.5"
     id="circle2822"
     cx="0"
     cy="0" /><circle
     transform="rotate(-128.33866,-238.5,-115.45295)"
     fill="#999999"
     r="2.5"
     id="circle2824"
     cx="0"
     cy="0" /><circle
     transform="rotate(-127.1885,-238.5,-118.42227)"
     fill="#999999"
     r="2.5"
     id="circle2826"
     cx="0"
     cy="0" /><circle
     transform="rotate(-126.03834,-238.5,-121.42133)"
     fill="#999999"
     r="2.5"
     id="circle2828"
     cx="0"
     cy="0" /><circle
     transform="rotate(-123.73802,-238.5,-127.51297)"
     fill="#999999"
     r="2.5"
     id="circle2830"
     cx="0"
     cy="0" /><circle
     transform="rotate(-122.58786,-238.5,-130.60778)"
     fill="#999999"
     r="2.5"
     id="circle2832"
     cx="0"
     cy="0" /><circle
     transform="rotate(-121.4377,-238.5,-133.7368)"
     fill="#999999"
     r="2.5"
     id="circle2834"
     cx="0"
     cy="0" /><circle
     transform="rotate(-120.28754,-238.5,-136.90125)"
     fill="#999999"
     r="2.5"
     id="circle2836"
     cx="0"
     cy="0" /><circle
     transform="rotate(-119.13738,-238.5,-140.10237)"
     fill="#999999"
     r="2.5"
     id="circle2838"
     cx="0"
     cy="0" /><circle
     transform="rotate(-116.83706,-238.5,-146.61987)"
     fill="#999999"
     r="2.5"
     id="circle2840"
     cx="0"
     cy="0" /><circle
     transform="rotate(-115.6869,-238.5,-149.93899)"
     fill="#999999"
     r="2.5"
     id="circle2842"
     cx="0"
     cy="0" /><circle
     transform="rotate(-114.53674,-238.5,-153.30027)"
     fill="#999999"
     r="2.5"
     id="circle2844"
     cx="0"
     cy="0" /><circle
     transform="rotate(-112.23642,-238.5,-160.15534)"
     fill="#999999"
     r="2.5"
     id="circle2846"
     cx="0"
     cy="0" /><circle
     transform="rotate(-111.08626,-238.5,-163.6523)"
     fill="#999999"
     r="2.5"
     id="circle2848"
     cx="0"
     cy="0" /><circle
     transform="rotate(-109.9361,-238.5,-167.19777)"
     fill="#999999"
     r="2.5"
     id="circle2850"
     cx="0"
     cy="0" /><circle
     transform="rotate(-107.63578,-238.5,-174.44127)"
     fill="#999999"
     r="2.5"
     id="circle2852"
     cx="0"
     cy="0" /><circle
     transform="rotate(-106.48562,-238.5,-178.14301)"
     fill="#999999"
     r="2.5"
     id="circle2854"
     cx="0"
     cy="0" /><circle
     transform="rotate(-105.33546,-238.5,-181.90067)"
     fill="#999999"
     r="2.5"
     id="circle2856"
     cx="0"
     cy="0" /><circle
     transform="rotate(-104.1853,-238.5,-185.71631)"
     fill="#999999"
     r="2.5"
     id="circle2858"
     cx="0"
     cy="0" /><circle
     transform="rotate(-103.03514,-238.5,-189.59207)"
     fill="#999999"
     r="2.5"
     id="circle2860"
     cx="0"
     cy="0" /><circle
     transform="rotate(-101.88498,-238.5,-193.53017)"
     fill="#999999"
     r="2.5"
     id="circle2862"
     cx="0"
     cy="0" /><circle
     transform="rotate(-100.73482,-238.5,-197.53295)"
     fill="#999999"
     r="2.5"
     id="circle2864"
     cx="0"
     cy="0" /><circle
     transform="rotate(-99.584665,-238.5,-201.60284)"
     fill="#999999"
     r="2.5"
     id="circle2866"
     cx="0"
     cy="0" /><circle
     transform="rotate(-98.434505,-238.5,-205.74239)"
     fill="#999999"
     r="2.5"
     id="circle2868"
     cx="0"
     cy="0" /><circle
     transform="rotate(-97.284345,-238.5,-209.95424)"
     fill="#999999"
     r="2.5"
     id="circle2870"
     cx="0"
     cy="0" /><circle
     transform="rotate(-96.134185,-238.5,-214.2412)"
     fill="#999999"
     r="2.5"
     id="circle2872"
     cx="0"
     cy="0" /><circle
     transform="rotate(-94.984026,-238.5,-218.60616)"
     fill="#999999"
     r="2.5"
     id="circle2874"
     cx="0"
     cy="0" /><circle
     transform="rotate(-93.833866,-238.5,-223.05218)"
     fill="#999999"
     r="2.5"
     id="circle2876"
     cx="0"
     cy="0" /><circle
     transform="rotate(-92.683706,-238.5,-227.58247)"
     fill="#999999"
     r="2.5"
     id="circle2878"
     cx="0"
     cy="0" /><circle
     transform="rotate(-91.533546,-238.5,-232.20037)"
     fill="#999999"
     r="2.5"
     id="circle2880"
     cx="0"
     cy="0" /></g></svg>
